<mxfile host="Electron" agent="Mozilla/5.0 (Windows NT 10.0; Win64; x64) AppleWebKit/537.36 (KHTML, like Gecko) draw.io/28.0.6 Chrome/138.0.7204.100 Electron/37.2.3 Safari/537.36" version="28.0.6" pages="3">
  <diagram id="37dsHCifBgGdeeFrEZUL" name="Top_Level_Chain">
    <mxGraphModel dx="2722" dy="1138" grid="1" gridSize="10" guides="1" tooltips="1" connect="1" arrows="1" fold="1" page="1" pageScale="1" pageWidth="827" pageHeight="1169" math="0" shadow="0">
      <root>
        <mxCell id="0" />
        <mxCell id="1" parent="0" />
        <mxCell id="EEUzir3j4xDcMTEriUhy-2" style="edgeStyle=orthogonalEdgeStyle;rounded=0;orthogonalLoop=1;jettySize=auto;html=1;entryX=0;entryY=0.5;entryDx=0;entryDy=0;startArrow=classic;startFill=1;fontStyle=1;fontSize=16;" edge="1" parent="1" source="a25ltIxKNHX0hF3KmatH-29" target="a25ltIxKNHX0hF3KmatH-30">
          <mxGeometry relative="1" as="geometry" />
        </mxCell>
        <mxCell id="a25ltIxKNHX0hF3KmatH-29" value="ANTENNA" style="rounded=0;whiteSpace=wrap;html=1;fontStyle=1;fontSize=16;" vertex="1" parent="1">
          <mxGeometry x="-80" y="610" width="120" height="60" as="geometry" />
        </mxCell>
        <mxCell id="EEUzir3j4xDcMTEriUhy-3" style="edgeStyle=orthogonalEdgeStyle;rounded=0;orthogonalLoop=1;jettySize=auto;html=1;entryX=0;entryY=0.5;entryDx=0;entryDy=0;startArrow=classic;startFill=1;fontStyle=1;fontSize=16;" edge="1" parent="1" source="a25ltIxKNHX0hF3KmatH-30" target="a25ltIxKNHX0hF3KmatH-31">
          <mxGeometry relative="1" as="geometry" />
        </mxCell>
        <mxCell id="a25ltIxKNHX0hF3KmatH-30" value="TUNER" style="rounded=0;whiteSpace=wrap;html=1;fontStyle=1;fontSize=16;" vertex="1" parent="1">
          <mxGeometry x="100" y="610" width="120" height="60" as="geometry" />
        </mxCell>
        <mxCell id="EEUzir3j4xDcMTEriUhy-4" style="edgeStyle=orthogonalEdgeStyle;rounded=0;orthogonalLoop=1;jettySize=auto;html=1;entryX=0;entryY=0.5;entryDx=0;entryDy=0;startArrow=classic;startFill=1;fontStyle=1;fontSize=16;" edge="1" parent="1" source="a25ltIxKNHX0hF3KmatH-31" target="a25ltIxKNHX0hF3KmatH-32">
          <mxGeometry relative="1" as="geometry" />
        </mxCell>
        <mxCell id="a25ltIxKNHX0hF3KmatH-31" value="FILTER" style="rounded=0;whiteSpace=wrap;html=1;fontStyle=1;fontSize=16;" vertex="1" parent="1">
          <mxGeometry x="270" y="610" width="120" height="60" as="geometry" />
        </mxCell>
        <mxCell id="EEUzir3j4xDcMTEriUhy-5" style="edgeStyle=orthogonalEdgeStyle;rounded=0;orthogonalLoop=1;jettySize=auto;html=1;entryX=0;entryY=0.5;entryDx=0;entryDy=0;fontStyle=1;fontSize=16;" edge="1" parent="1" source="a25ltIxKNHX0hF3KmatH-32" target="a25ltIxKNHX0hF3KmatH-33">
          <mxGeometry relative="1" as="geometry">
            <Array as="points">
              <mxPoint x="520" y="540" />
            </Array>
          </mxGeometry>
        </mxCell>
        <mxCell id="a25ltIxKNHX0hF3KmatH-32" value="" style="shape=sumEllipse;perimeter=ellipsePerimeter;whiteSpace=wrap;html=1;backgroundOutline=1;fontStyle=1;fontSize=16;" vertex="1" parent="1">
          <mxGeometry x="480" y="600" width="80" height="80" as="geometry" />
        </mxCell>
        <mxCell id="EEUzir3j4xDcMTEriUhy-7" style="edgeStyle=orthogonalEdgeStyle;rounded=0;orthogonalLoop=1;jettySize=auto;html=1;entryX=0.5;entryY=0;entryDx=0;entryDy=0;fontStyle=1;fontSize=16;" edge="1" parent="1" source="a25ltIxKNHX0hF3KmatH-33" target="kL7zscgjk1YYdaxadXXH-1">
          <mxGeometry relative="1" as="geometry" />
        </mxCell>
        <mxCell id="a25ltIxKNHX0hF3KmatH-33" value="LNA" style="rounded=0;whiteSpace=wrap;html=1;fontStyle=1;fontSize=16;" vertex="1" parent="1">
          <mxGeometry x="630" y="510" width="120" height="60" as="geometry" />
        </mxCell>
        <mxCell id="EEUzir3j4xDcMTEriUhy-6" style="edgeStyle=orthogonalEdgeStyle;rounded=0;orthogonalLoop=1;jettySize=auto;html=1;entryX=0.5;entryY=1;entryDx=0;entryDy=0;fontStyle=1;fontSize=16;" edge="1" parent="1" source="a25ltIxKNHX0hF3KmatH-34" target="a25ltIxKNHX0hF3KmatH-32">
          <mxGeometry relative="1" as="geometry" />
        </mxCell>
        <mxCell id="a25ltIxKNHX0hF3KmatH-34" value="PA" style="rounded=0;whiteSpace=wrap;html=1;fontStyle=1;fontSize=16;" vertex="1" parent="1">
          <mxGeometry x="630" y="690" width="120" height="60" as="geometry" />
        </mxCell>
        <mxCell id="EEUzir3j4xDcMTEriUhy-8" style="edgeStyle=orthogonalEdgeStyle;rounded=0;orthogonalLoop=1;jettySize=auto;html=1;entryX=1;entryY=0.5;entryDx=0;entryDy=0;fontStyle=1;fontSize=16;" edge="1" parent="1" source="kL7zscgjk1YYdaxadXXH-1" target="a25ltIxKNHX0hF3KmatH-34">
          <mxGeometry relative="1" as="geometry">
            <Array as="points">
              <mxPoint x="860" y="720" />
            </Array>
          </mxGeometry>
        </mxCell>
        <mxCell id="EEUzir3j4xDcMTEriUhy-9" style="edgeStyle=orthogonalEdgeStyle;rounded=0;orthogonalLoop=1;jettySize=auto;html=1;entryX=0;entryY=0.5;entryDx=0;entryDy=0;startArrow=classic;startFill=1;fontStyle=1;fontSize=16;" edge="1" parent="1" source="kL7zscgjk1YYdaxadXXH-1" target="kL7zscgjk1YYdaxadXXH-2">
          <mxGeometry relative="1" as="geometry" />
        </mxCell>
        <mxCell id="kL7zscgjk1YYdaxadXXH-1" value="" style="shape=sumEllipse;perimeter=ellipsePerimeter;whiteSpace=wrap;html=1;backgroundOutline=1;fontStyle=1;fontSize=16;" vertex="1" parent="1">
          <mxGeometry x="820" y="600" width="80" height="80" as="geometry" />
        </mxCell>
        <mxCell id="EEUzir3j4xDcMTEriUhy-10" style="edgeStyle=orthogonalEdgeStyle;rounded=0;orthogonalLoop=1;jettySize=auto;html=1;entryX=0;entryY=0.5;entryDx=0;entryDy=0;startArrow=classic;startFill=1;fontStyle=1;fontSize=16;" edge="1" parent="1" source="kL7zscgjk1YYdaxadXXH-2" target="EEUzir3j4xDcMTEriUhy-1">
          <mxGeometry relative="1" as="geometry" />
        </mxCell>
        <mxCell id="kL7zscgjk1YYdaxadXXH-2" value="IF GENERATION" style="rounded=0;whiteSpace=wrap;html=1;fontStyle=1;fontSize=16;" vertex="1" parent="1">
          <mxGeometry x="990" y="610" width="120" height="60" as="geometry" />
        </mxCell>
        <mxCell id="EEUzir3j4xDcMTEriUhy-1" value="DIGITAL PROCESSING" style="rounded=0;whiteSpace=wrap;html=1;fontStyle=1;fontSize=16;" vertex="1" parent="1">
          <mxGeometry x="1200" y="610" width="120" height="60" as="geometry" />
        </mxCell>
        <mxCell id="EEUzir3j4xDcMTEriUhy-11" value="&lt;b&gt;&lt;font style=&quot;font-size: 26px;&quot;&gt;TOP LEVEL ARCHITECTURE&lt;/font&gt;&lt;/b&gt;" style="text;html=1;align=center;verticalAlign=middle;resizable=0;points=[];autosize=1;strokeColor=none;fillColor=none;" vertex="1" parent="1">
          <mxGeometry x="500" y="440" width="380" height="40" as="geometry" />
        </mxCell>
      </root>
    </mxGraphModel>
  </diagram>
  <diagram id="C5RBs43oDa-KdzZeNtuy" name="RX_Chain">
    <mxGraphModel dx="3738" dy="1252" grid="1" gridSize="10" guides="1" tooltips="1" connect="1" arrows="1" fold="1" page="1" pageScale="1" pageWidth="827" pageHeight="1169" math="0" shadow="0">
      <root>
        <mxCell id="WIyWlLk6GJQsqaUBKTNV-0" />
        <mxCell id="WIyWlLk6GJQsqaUBKTNV-1" parent="WIyWlLk6GJQsqaUBKTNV-0" />
        <mxCell id="hkPXWiVvAHIRFbyyTnoW-1" value="" style="rounded=0;whiteSpace=wrap;html=1;dashed=1;dashPattern=8 8;" parent="WIyWlLk6GJQsqaUBKTNV-1" vertex="1">
          <mxGeometry x="315.5" y="605" width="340" height="100" as="geometry" />
        </mxCell>
        <mxCell id="dr_oI7EL4_MaKxA0laTX-92" value="" style="rounded=0;whiteSpace=wrap;html=1;dashed=1;dashPattern=8 8;" parent="WIyWlLk6GJQsqaUBKTNV-1" vertex="1">
          <mxGeometry x="890" y="367.63" width="590" height="200.25" as="geometry" />
        </mxCell>
        <mxCell id="dr_oI7EL4_MaKxA0laTX-58" value="" style="rounded=0;whiteSpace=wrap;html=1;dashed=1;dashPattern=8 8;" parent="WIyWlLk6GJQsqaUBKTNV-1" vertex="1">
          <mxGeometry x="267" y="369.75" width="593" height="220.25" as="geometry" />
        </mxCell>
        <mxCell id="Lw6fX-miKarcc394pqyk-15" style="edgeStyle=orthogonalEdgeStyle;rounded=0;orthogonalLoop=1;jettySize=auto;html=1;entryX=0.5;entryY=1;entryDx=0;entryDy=0;endSize=20.078699999999998;exitX=0.5;exitY=1;exitDx=0;exitDy=0;" parent="WIyWlLk6GJQsqaUBKTNV-1" source="dr_oI7EL4_MaKxA0laTX-93" target="Lw6fX-miKarcc394pqyk-11" edge="1">
          <mxGeometry relative="1" as="geometry">
            <Array as="points">
              <mxPoint x="1375" y="820" />
              <mxPoint x="485" y="820" />
            </Array>
          </mxGeometry>
        </mxCell>
        <mxCell id="dr_oI7EL4_MaKxA0laTX-48" value="" style="rounded=0;whiteSpace=wrap;html=1;dashed=1;dashPattern=8 8;" parent="WIyWlLk6GJQsqaUBKTNV-1" vertex="1">
          <mxGeometry x="-779" y="375.5" width="279" height="170" as="geometry" />
        </mxCell>
        <mxCell id="dr_oI7EL4_MaKxA0laTX-47" value="" style="rounded=0;whiteSpace=wrap;html=1;dashed=1;dashPattern=8 8;" parent="WIyWlLk6GJQsqaUBKTNV-1" vertex="1">
          <mxGeometry x="-470" y="370" width="720" height="200" as="geometry" />
        </mxCell>
        <mxCell id="dr_oI7EL4_MaKxA0laTX-46" value="" style="rounded=0;whiteSpace=wrap;html=1;dashed=1;dashPattern=8 8;" parent="WIyWlLk6GJQsqaUBKTNV-1" vertex="1">
          <mxGeometry x="-894" y="369.75" width="100" height="170" as="geometry" />
        </mxCell>
        <mxCell id="dr_oI7EL4_MaKxA0laTX-45" value="" style="rounded=0;whiteSpace=wrap;html=1;dashed=1;dashPattern=8 8;" parent="WIyWlLk6GJQsqaUBKTNV-1" vertex="1">
          <mxGeometry x="-1009" y="370" width="100" height="170" as="geometry" />
        </mxCell>
        <mxCell id="8ZbKHl81lls4W-tDEg7p-10" style="edgeStyle=orthogonalEdgeStyle;rounded=0;orthogonalLoop=1;jettySize=auto;html=1;entryX=0;entryY=0.5;entryDx=0;entryDy=0;" parent="WIyWlLk6GJQsqaUBKTNV-1" source="-i-UFFwSyRMbfbkfrYCn-6" target="8ZbKHl81lls4W-tDEg7p-0" edge="1">
          <mxGeometry relative="1" as="geometry" />
        </mxCell>
        <mxCell id="-i-UFFwSyRMbfbkfrYCn-6" value="Limitter" style="rounded=0;whiteSpace=wrap;html=1;" parent="WIyWlLk6GJQsqaUBKTNV-1" vertex="1">
          <mxGeometry x="-759" y="440" width="70" height="40" as="geometry" />
        </mxCell>
        <mxCell id="-i-UFFwSyRMbfbkfrYCn-7" value="" style="endArrow=classic;html=1;rounded=0;entryX=0;entryY=0.5;entryDx=0;entryDy=0;" parent="WIyWlLk6GJQsqaUBKTNV-1" source="Qe9bErmI2PUYyQ3oxX9a-11" target="-i-UFFwSyRMbfbkfrYCn-6" edge="1">
          <mxGeometry width="50" height="50" relative="1" as="geometry">
            <mxPoint x="-929" y="460" as="sourcePoint" />
            <mxPoint x="-619" y="410" as="targetPoint" />
          </mxGeometry>
        </mxCell>
        <mxCell id="8ZbKHl81lls4W-tDEg7p-9" value="" style="group" parent="WIyWlLk6GJQsqaUBKTNV-1" vertex="1" connectable="0">
          <mxGeometry x="-629" y="420" width="100" height="80" as="geometry" />
        </mxCell>
        <mxCell id="8ZbKHl81lls4W-tDEg7p-0" value="" style="rounded=0;whiteSpace=wrap;html=1;" parent="8ZbKHl81lls4W-tDEg7p-9" vertex="1">
          <mxGeometry width="100" height="80" as="geometry" />
        </mxCell>
        <mxCell id="8ZbKHl81lls4W-tDEg7p-6" value="" style="group" parent="8ZbKHl81lls4W-tDEg7p-9" vertex="1" connectable="0">
          <mxGeometry x="30" y="10" width="40" height="60" as="geometry" />
        </mxCell>
        <mxCell id="8ZbKHl81lls4W-tDEg7p-2" value="" style="curved=1;endArrow=dash;html=1;rounded=0;endFill=0;" parent="8ZbKHl81lls4W-tDEg7p-6" edge="1">
          <mxGeometry width="50" height="50" relative="1" as="geometry">
            <mxPoint y="10" as="sourcePoint" />
            <mxPoint x="40" y="20" as="targetPoint" />
            <Array as="points">
              <mxPoint y="20" />
              <mxPoint x="20" y="20" />
              <mxPoint x="20" />
              <mxPoint x="40" />
              <mxPoint x="40" y="20" />
              <mxPoint x="40" y="10" />
            </Array>
          </mxGeometry>
        </mxCell>
        <mxCell id="8ZbKHl81lls4W-tDEg7p-4" value="" style="curved=1;endArrow=blockThin;html=1;rounded=0;endFill=1;" parent="8ZbKHl81lls4W-tDEg7p-6" edge="1">
          <mxGeometry width="50" height="50" relative="1" as="geometry">
            <mxPoint y="30" as="sourcePoint" />
            <mxPoint x="40" y="40" as="targetPoint" />
            <Array as="points">
              <mxPoint y="40" />
              <mxPoint x="20" y="40" />
              <mxPoint x="20" y="20" />
              <mxPoint x="40" y="20" />
              <mxPoint x="40" y="40" />
              <mxPoint x="40" y="30" />
            </Array>
          </mxGeometry>
        </mxCell>
        <mxCell id="8ZbKHl81lls4W-tDEg7p-5" value="" style="curved=1;endArrow=dash;html=1;rounded=0;endFill=0;" parent="8ZbKHl81lls4W-tDEg7p-6" edge="1">
          <mxGeometry width="50" height="50" relative="1" as="geometry">
            <mxPoint y="50" as="sourcePoint" />
            <mxPoint x="40" y="60" as="targetPoint" />
            <Array as="points">
              <mxPoint y="60" />
              <mxPoint x="20" y="60" />
              <mxPoint x="20" y="40" />
              <mxPoint x="40" y="40" />
              <mxPoint x="40" y="60" />
              <mxPoint x="40" y="50" />
            </Array>
          </mxGeometry>
        </mxCell>
        <mxCell id="8ZbKHl81lls4W-tDEg7p-13" value="&lt;b&gt;&lt;font style=&quot;font-size: 14px;&quot;&gt;BPF&lt;/font&gt;&lt;/b&gt;" style="text;html=1;align=center;verticalAlign=middle;resizable=0;points=[];autosize=1;strokeColor=none;fillColor=none;" parent="WIyWlLk6GJQsqaUBKTNV-1" vertex="1">
          <mxGeometry x="-604" y="500" width="50" height="30" as="geometry" />
        </mxCell>
        <mxCell id="Qe9bErmI2PUYyQ3oxX9a-6" style="edgeStyle=orthogonalEdgeStyle;rounded=0;orthogonalLoop=1;jettySize=auto;html=1;entryX=0;entryY=0.5;entryDx=0;entryDy=0;" parent="WIyWlLk6GJQsqaUBKTNV-1" source="8ZbKHl81lls4W-tDEg7p-23" target="Qe9bErmI2PUYyQ3oxX9a-1" edge="1">
          <mxGeometry relative="1" as="geometry">
            <mxPoint x="340.9999999999998" y="460" as="targetPoint" />
          </mxGeometry>
        </mxCell>
        <mxCell id="Qe9bErmI2PUYyQ3oxX9a-31" value="IF1:&lt;div&gt;160MHz&lt;/div&gt;" style="edgeLabel;html=1;align=center;verticalAlign=middle;resizable=0;points=[];" parent="Qe9bErmI2PUYyQ3oxX9a-6" vertex="1" connectable="0">
          <mxGeometry x="-0.3965" y="2" relative="1" as="geometry">
            <mxPoint x="12" y="2" as="offset" />
          </mxGeometry>
        </mxCell>
        <mxCell id="8ZbKHl81lls4W-tDEg7p-23" value="" style="shape=sumEllipse;perimeter=ellipsePerimeter;whiteSpace=wrap;html=1;backgroundOutline=1;" parent="WIyWlLk6GJQsqaUBKTNV-1" vertex="1">
          <mxGeometry x="320" y="435" width="50" height="50" as="geometry" />
        </mxCell>
        <mxCell id="Qe9bErmI2PUYyQ3oxX9a-0" value="" style="group" parent="WIyWlLk6GJQsqaUBKTNV-1" vertex="1" connectable="0">
          <mxGeometry x="441" y="420.5" width="100" height="80" as="geometry" />
        </mxCell>
        <mxCell id="Qe9bErmI2PUYyQ3oxX9a-1" value="" style="rounded=0;whiteSpace=wrap;html=1;" parent="Qe9bErmI2PUYyQ3oxX9a-0" vertex="1">
          <mxGeometry width="100" height="80" as="geometry" />
        </mxCell>
        <mxCell id="Qe9bErmI2PUYyQ3oxX9a-2" value="" style="group" parent="Qe9bErmI2PUYyQ3oxX9a-0" vertex="1" connectable="0">
          <mxGeometry x="30" y="10" width="40" height="60" as="geometry" />
        </mxCell>
        <mxCell id="Qe9bErmI2PUYyQ3oxX9a-3" value="" style="curved=1;endArrow=dash;html=1;rounded=0;endFill=0;" parent="Qe9bErmI2PUYyQ3oxX9a-2" edge="1">
          <mxGeometry width="50" height="50" relative="1" as="geometry">
            <mxPoint y="10" as="sourcePoint" />
            <mxPoint x="40" y="20" as="targetPoint" />
            <Array as="points">
              <mxPoint y="20" />
              <mxPoint x="20" y="20" />
              <mxPoint x="20" />
              <mxPoint x="40" />
              <mxPoint x="40" y="20" />
              <mxPoint x="40" y="10" />
            </Array>
          </mxGeometry>
        </mxCell>
        <mxCell id="Qe9bErmI2PUYyQ3oxX9a-4" value="" style="curved=1;endArrow=blockThin;html=1;rounded=0;endFill=1;" parent="Qe9bErmI2PUYyQ3oxX9a-2" edge="1">
          <mxGeometry width="50" height="50" relative="1" as="geometry">
            <mxPoint y="30" as="sourcePoint" />
            <mxPoint x="40" y="40" as="targetPoint" />
            <Array as="points">
              <mxPoint y="40" />
              <mxPoint x="20" y="40" />
              <mxPoint x="20" y="20" />
              <mxPoint x="40" y="20" />
              <mxPoint x="40" y="40" />
              <mxPoint x="40" y="30" />
            </Array>
          </mxGeometry>
        </mxCell>
        <mxCell id="Qe9bErmI2PUYyQ3oxX9a-5" value="" style="curved=1;endArrow=dash;html=1;rounded=0;endFill=0;" parent="Qe9bErmI2PUYyQ3oxX9a-2" edge="1">
          <mxGeometry width="50" height="50" relative="1" as="geometry">
            <mxPoint y="50" as="sourcePoint" />
            <mxPoint x="40" y="60" as="targetPoint" />
            <Array as="points">
              <mxPoint y="60" />
              <mxPoint x="20" y="60" />
              <mxPoint x="20" y="40" />
              <mxPoint x="40" y="40" />
              <mxPoint x="40" y="60" />
              <mxPoint x="40" y="50" />
            </Array>
          </mxGeometry>
        </mxCell>
        <mxCell id="Qe9bErmI2PUYyQ3oxX9a-7" value="&lt;b&gt;&lt;font style=&quot;font-size: 14px;&quot;&gt;BPF&lt;/font&gt;&lt;/b&gt;" style="text;html=1;align=center;verticalAlign=middle;resizable=0;points=[];autosize=1;strokeColor=none;fillColor=none;" parent="WIyWlLk6GJQsqaUBKTNV-1" vertex="1">
          <mxGeometry x="466" y="390.5" width="50" height="30" as="geometry" />
        </mxCell>
        <mxCell id="Qe9bErmI2PUYyQ3oxX9a-10" value="" style="group" parent="WIyWlLk6GJQsqaUBKTNV-1" vertex="1" connectable="0">
          <mxGeometry x="-1009" y="400" width="100" height="112" as="geometry" />
        </mxCell>
        <mxCell id="-i-UFFwSyRMbfbkfrYCn-5" value="Ant" style="text;html=1;align=center;verticalAlign=middle;resizable=0;points=[];autosize=1;strokeColor=none;fillColor=none;" parent="Qe9bErmI2PUYyQ3oxX9a-10" vertex="1">
          <mxGeometry x="30" width="40" height="30" as="geometry" />
        </mxCell>
        <mxCell id="Qe9bErmI2PUYyQ3oxX9a-8" value="3MHz-150MHz" style="text;html=1;align=center;verticalAlign=middle;resizable=0;points=[];autosize=1;strokeColor=none;fillColor=none;" parent="Qe9bErmI2PUYyQ3oxX9a-10" vertex="1">
          <mxGeometry y="82" width="100" height="30" as="geometry" />
        </mxCell>
        <mxCell id="Qe9bErmI2PUYyQ3oxX9a-9" value="" style="group" parent="Qe9bErmI2PUYyQ3oxX9a-10" vertex="1" connectable="0">
          <mxGeometry x="40" y="22" width="20" height="60" as="geometry" />
        </mxCell>
        <mxCell id="-i-UFFwSyRMbfbkfrYCn-0" value="" style="endArrow=none;html=1;rounded=0;" parent="Qe9bErmI2PUYyQ3oxX9a-9" edge="1">
          <mxGeometry width="50" height="50" relative="1" as="geometry">
            <mxPoint x="10" y="60" as="sourcePoint" />
            <mxPoint x="10" as="targetPoint" />
          </mxGeometry>
        </mxCell>
        <mxCell id="-i-UFFwSyRMbfbkfrYCn-2" value="" style="endArrow=none;html=1;rounded=0;" parent="Qe9bErmI2PUYyQ3oxX9a-9" edge="1">
          <mxGeometry width="50" height="50" relative="1" as="geometry">
            <mxPoint x="10" y="30" as="sourcePoint" />
            <mxPoint x="20" y="10" as="targetPoint" />
          </mxGeometry>
        </mxCell>
        <mxCell id="-i-UFFwSyRMbfbkfrYCn-3" value="" style="endArrow=none;html=1;rounded=0;" parent="Qe9bErmI2PUYyQ3oxX9a-9" edge="1">
          <mxGeometry width="50" height="50" relative="1" as="geometry">
            <mxPoint x="10" y="30" as="sourcePoint" />
            <mxPoint y="10" as="targetPoint" />
          </mxGeometry>
        </mxCell>
        <mxCell id="-i-UFFwSyRMbfbkfrYCn-4" value="" style="endArrow=none;html=1;rounded=0;" parent="Qe9bErmI2PUYyQ3oxX9a-9" edge="1">
          <mxGeometry width="50" height="50" relative="1" as="geometry">
            <mxPoint y="10" as="sourcePoint" />
            <mxPoint x="20" y="10" as="targetPoint" />
          </mxGeometry>
        </mxCell>
        <mxCell id="Qe9bErmI2PUYyQ3oxX9a-12" value="" style="endArrow=classic;html=1;rounded=0;entryX=0;entryY=0.5;entryDx=0;entryDy=0;" parent="WIyWlLk6GJQsqaUBKTNV-1" target="Qe9bErmI2PUYyQ3oxX9a-11" edge="1">
          <mxGeometry width="50" height="50" relative="1" as="geometry">
            <mxPoint x="-959" y="461" as="sourcePoint" />
            <mxPoint x="-769" y="460" as="targetPoint" />
          </mxGeometry>
        </mxCell>
        <mxCell id="Qe9bErmI2PUYyQ3oxX9a-11" value="Tuner" style="rounded=0;whiteSpace=wrap;html=1;" parent="WIyWlLk6GJQsqaUBKTNV-1" vertex="1">
          <mxGeometry x="-879" y="440.5" width="70" height="40" as="geometry" />
        </mxCell>
        <mxCell id="Qe9bErmI2PUYyQ3oxX9a-13" value="Vswr:&lt;br&gt;1:1" style="text;html=1;align=center;verticalAlign=middle;resizable=0;points=[];autosize=1;strokeColor=none;fillColor=none;" parent="WIyWlLk6GJQsqaUBKTNV-1" vertex="1">
          <mxGeometry x="-869" y="480.5" width="50" height="40" as="geometry" />
        </mxCell>
        <mxCell id="Qe9bErmI2PUYyQ3oxX9a-14" value="5dBm" style="text;html=1;align=center;verticalAlign=middle;resizable=0;points=[];autosize=1;strokeColor=none;fillColor=none;" parent="WIyWlLk6GJQsqaUBKTNV-1" vertex="1">
          <mxGeometry x="-754" y="478" width="50" height="30" as="geometry" />
        </mxCell>
        <mxCell id="Qe9bErmI2PUYyQ3oxX9a-15" value="" style="endArrow=classic;html=1;rounded=0;entryX=0.5;entryY=1;entryDx=0;entryDy=0;" parent="WIyWlLk6GJQsqaUBKTNV-1" source="Qe9bErmI2PUYyQ3oxX9a-16" target="8ZbKHl81lls4W-tDEg7p-23" edge="1">
          <mxGeometry width="50" height="50" relative="1" as="geometry">
            <mxPoint x="256" y="530" as="sourcePoint" />
            <mxPoint x="251" y="490" as="targetPoint" />
          </mxGeometry>
        </mxCell>
        <mxCell id="Qe9bErmI2PUYyQ3oxX9a-16" value="&lt;b&gt;LO1&lt;/b&gt;" style="text;html=1;align=center;verticalAlign=middle;resizable=0;points=[];autosize=1;strokeColor=none;fillColor=none;" parent="WIyWlLk6GJQsqaUBKTNV-1" vertex="1">
          <mxGeometry x="320" y="530" width="50" height="30" as="geometry" />
        </mxCell>
        <mxCell id="Qe9bErmI2PUYyQ3oxX9a-17" value="M1-&amp;nbsp;&lt;div&gt;Up Conversion&lt;/div&gt;" style="text;html=1;align=center;verticalAlign=middle;resizable=0;points=[];autosize=1;strokeColor=none;fillColor=none;" parent="WIyWlLk6GJQsqaUBKTNV-1" vertex="1">
          <mxGeometry x="301" y="367.63" width="100" height="40" as="geometry" />
        </mxCell>
        <mxCell id="Qe9bErmI2PUYyQ3oxX9a-18" style="edgeStyle=orthogonalEdgeStyle;rounded=0;orthogonalLoop=1;jettySize=auto;html=1;entryX=0;entryY=0.5;entryDx=0;entryDy=0;" parent="WIyWlLk6GJQsqaUBKTNV-1" source="Qe9bErmI2PUYyQ3oxX9a-19" target="Qe9bErmI2PUYyQ3oxX9a-22" edge="1">
          <mxGeometry relative="1" as="geometry">
            <mxPoint x="605.9999999999998" y="460" as="targetPoint" />
          </mxGeometry>
        </mxCell>
        <mxCell id="dr_oI7EL4_MaKxA0laTX-2" value="IF2:&lt;div&gt;5MHZ&lt;/div&gt;" style="edgeLabel;html=1;align=center;verticalAlign=middle;resizable=0;points=[];" parent="Qe9bErmI2PUYyQ3oxX9a-18" vertex="1" connectable="0">
          <mxGeometry x="-0.1715" y="-2" relative="1" as="geometry">
            <mxPoint as="offset" />
          </mxGeometry>
        </mxCell>
        <mxCell id="Qe9bErmI2PUYyQ3oxX9a-19" value="" style="shape=sumEllipse;perimeter=ellipsePerimeter;whiteSpace=wrap;html=1;backgroundOutline=1;" parent="WIyWlLk6GJQsqaUBKTNV-1" vertex="1">
          <mxGeometry x="596" y="435.5" width="50" height="50" as="geometry" />
        </mxCell>
        <mxCell id="Qe9bErmI2PUYyQ3oxX9a-20" style="edgeStyle=orthogonalEdgeStyle;rounded=0;orthogonalLoop=1;jettySize=auto;html=1;exitX=1;exitY=0.5;exitDx=0;exitDy=0;entryX=0;entryY=0.5;entryDx=0;entryDy=0;" parent="WIyWlLk6GJQsqaUBKTNV-1" source="Qe9bErmI2PUYyQ3oxX9a-1" target="Qe9bErmI2PUYyQ3oxX9a-19" edge="1">
          <mxGeometry relative="1" as="geometry">
            <mxPoint x="441" y="461" as="sourcePoint" />
          </mxGeometry>
        </mxCell>
        <mxCell id="Qe9bErmI2PUYyQ3oxX9a-21" value="" style="group" parent="WIyWlLk6GJQsqaUBKTNV-1" vertex="1" connectable="0">
          <mxGeometry x="721" y="420.5" width="100" height="80" as="geometry" />
        </mxCell>
        <mxCell id="Qe9bErmI2PUYyQ3oxX9a-22" value="" style="rounded=0;whiteSpace=wrap;html=1;" parent="Qe9bErmI2PUYyQ3oxX9a-21" vertex="1">
          <mxGeometry width="100" height="80" as="geometry" />
        </mxCell>
        <mxCell id="Qe9bErmI2PUYyQ3oxX9a-23" value="" style="group" parent="Qe9bErmI2PUYyQ3oxX9a-21" vertex="1" connectable="0">
          <mxGeometry x="30" y="10" width="40" height="60" as="geometry" />
        </mxCell>
        <mxCell id="Qe9bErmI2PUYyQ3oxX9a-24" value="" style="curved=1;endArrow=dash;html=1;rounded=0;endFill=0;" parent="Qe9bErmI2PUYyQ3oxX9a-23" edge="1">
          <mxGeometry width="50" height="50" relative="1" as="geometry">
            <mxPoint y="10" as="sourcePoint" />
            <mxPoint x="40" y="20" as="targetPoint" />
            <Array as="points">
              <mxPoint y="20" />
              <mxPoint x="20" y="20" />
              <mxPoint x="20" />
              <mxPoint x="40" />
              <mxPoint x="40" y="20" />
              <mxPoint x="40" y="10" />
            </Array>
          </mxGeometry>
        </mxCell>
        <mxCell id="Qe9bErmI2PUYyQ3oxX9a-25" value="" style="curved=1;endArrow=blockThin;html=1;rounded=0;endFill=1;" parent="Qe9bErmI2PUYyQ3oxX9a-23" edge="1">
          <mxGeometry width="50" height="50" relative="1" as="geometry">
            <mxPoint y="30" as="sourcePoint" />
            <mxPoint x="40" y="40" as="targetPoint" />
            <Array as="points">
              <mxPoint y="40" />
              <mxPoint x="20" y="40" />
              <mxPoint x="20" y="20" />
              <mxPoint x="40" y="20" />
              <mxPoint x="40" y="40" />
              <mxPoint x="40" y="30" />
            </Array>
          </mxGeometry>
        </mxCell>
        <mxCell id="Qe9bErmI2PUYyQ3oxX9a-26" value="" style="curved=1;endArrow=dash;html=1;rounded=0;endFill=0;" parent="Qe9bErmI2PUYyQ3oxX9a-23" edge="1">
          <mxGeometry width="50" height="50" relative="1" as="geometry">
            <mxPoint y="50" as="sourcePoint" />
            <mxPoint x="40" y="60" as="targetPoint" />
            <Array as="points">
              <mxPoint y="60" />
              <mxPoint x="20" y="60" />
              <mxPoint x="20" y="40" />
              <mxPoint x="40" y="40" />
              <mxPoint x="40" y="60" />
              <mxPoint x="40" y="50" />
            </Array>
          </mxGeometry>
        </mxCell>
        <mxCell id="Qe9bErmI2PUYyQ3oxX9a-27" value="" style="endArrow=classic;html=1;rounded=0;entryX=0.5;entryY=1;entryDx=0;entryDy=0;" parent="WIyWlLk6GJQsqaUBKTNV-1" source="Qe9bErmI2PUYyQ3oxX9a-29" target="Qe9bErmI2PUYyQ3oxX9a-19" edge="1">
          <mxGeometry width="50" height="50" relative="1" as="geometry">
            <mxPoint x="521" y="530" as="sourcePoint" />
            <mxPoint x="516" y="490" as="targetPoint" />
          </mxGeometry>
        </mxCell>
        <mxCell id="Qe9bErmI2PUYyQ3oxX9a-28" value="M2-&lt;br&gt;Down Conversion" style="text;html=1;align=center;verticalAlign=middle;resizable=0;points=[];autosize=1;strokeColor=none;fillColor=none;" parent="WIyWlLk6GJQsqaUBKTNV-1" vertex="1">
          <mxGeometry x="561" y="370" width="120" height="40" as="geometry" />
        </mxCell>
        <mxCell id="Qe9bErmI2PUYyQ3oxX9a-29" value="&lt;b&gt;LO2&lt;/b&gt;" style="text;html=1;align=center;verticalAlign=middle;resizable=0;points=[];autosize=1;strokeColor=none;fillColor=none;" parent="WIyWlLk6GJQsqaUBKTNV-1" vertex="1">
          <mxGeometry x="596" y="527" width="50" height="30" as="geometry" />
        </mxCell>
        <mxCell id="Qe9bErmI2PUYyQ3oxX9a-30" value="&lt;b&gt;&lt;font style=&quot;font-size: 14px;&quot;&gt;BPF&lt;/font&gt;&lt;/b&gt;" style="text;html=1;align=center;verticalAlign=middle;resizable=0;points=[];autosize=1;strokeColor=none;fillColor=none;" parent="WIyWlLk6GJQsqaUBKTNV-1" vertex="1">
          <mxGeometry x="746" y="390.5" width="50" height="30" as="geometry" />
        </mxCell>
        <mxCell id="dr_oI7EL4_MaKxA0laTX-0" value="&lt;font style=&quot;font-size: 17px;&quot;&gt;Notes:&lt;br&gt;1. IF1: 160MHz is a relatively quiet band - used by non-Amature.&lt;br&gt;2. LO2&amp;gt;IF1 to prevent spectral inversion. LO2=165MHz&lt;br&gt;3. LO3&amp;gt;IF2&amp;nbsp;&lt;/font&gt;&lt;span style=&quot;font-size: 17px;&quot;&gt;to prevent spectral inversion. LO2=5.2MHz&lt;br&gt;4. ** Aplification phase: gain of each LNA is 22dB.. if the power &amp;gt; 5dB &lt;br&gt;&lt;span style=&quot;white-space: pre;&quot;&gt;&#x9;&lt;/span&gt;after 3rd LNA then limitted to 5dBm, same opration after 4th LNA&lt;br&gt;&lt;/span&gt;" style="text;html=1;align=left;verticalAlign=middle;resizable=0;points=[];autosize=1;strokeColor=default;fillColor=none;" parent="WIyWlLk6GJQsqaUBKTNV-1" vertex="1">
          <mxGeometry x="-1010" y="615" width="550" height="140" as="geometry" />
        </mxCell>
        <mxCell id="dr_oI7EL4_MaKxA0laTX-17" style="edgeStyle=orthogonalEdgeStyle;rounded=0;orthogonalLoop=1;jettySize=auto;html=1;entryX=0;entryY=0.5;entryDx=0;entryDy=0;" parent="WIyWlLk6GJQsqaUBKTNV-1" source="Qe9bErmI2PUYyQ3oxX9a-22" target="dr_oI7EL4_MaKxA0laTX-84" edge="1">
          <mxGeometry relative="1" as="geometry">
            <mxPoint x="890" y="460" as="targetPoint" />
          </mxGeometry>
        </mxCell>
        <mxCell id="dr_oI7EL4_MaKxA0laTX-49" value="" style="group" parent="WIyWlLk6GJQsqaUBKTNV-1" vertex="1" connectable="0">
          <mxGeometry x="-430" y="420.5" width="100" height="80" as="geometry" />
        </mxCell>
        <mxCell id="dr_oI7EL4_MaKxA0laTX-50" value="" style="rounded=0;whiteSpace=wrap;html=1;" parent="dr_oI7EL4_MaKxA0laTX-49" vertex="1">
          <mxGeometry width="100" height="80" as="geometry" />
        </mxCell>
        <mxCell id="dr_oI7EL4_MaKxA0laTX-51" value="" style="group" parent="dr_oI7EL4_MaKxA0laTX-49" vertex="1" connectable="0">
          <mxGeometry x="30" y="10" width="40" height="60" as="geometry" />
        </mxCell>
        <mxCell id="dr_oI7EL4_MaKxA0laTX-52" value="" style="curved=1;endArrow=dash;html=1;rounded=0;endFill=0;" parent="dr_oI7EL4_MaKxA0laTX-51" edge="1">
          <mxGeometry width="50" height="50" relative="1" as="geometry">
            <mxPoint y="10" as="sourcePoint" />
            <mxPoint x="40" y="20" as="targetPoint" />
            <Array as="points">
              <mxPoint y="20" />
              <mxPoint x="20" y="20" />
              <mxPoint x="20" />
              <mxPoint x="40" />
              <mxPoint x="40" y="20" />
              <mxPoint x="40" y="10" />
            </Array>
          </mxGeometry>
        </mxCell>
        <mxCell id="dr_oI7EL4_MaKxA0laTX-53" value="" style="curved=1;endArrow=dash;html=1;rounded=0;endFill=0;" parent="dr_oI7EL4_MaKxA0laTX-51" edge="1">
          <mxGeometry width="50" height="50" relative="1" as="geometry">
            <mxPoint y="30" as="sourcePoint" />
            <mxPoint x="40" y="40" as="targetPoint" />
            <Array as="points">
              <mxPoint y="40" />
              <mxPoint x="20" y="40" />
              <mxPoint x="20" y="20" />
              <mxPoint x="40" y="20" />
              <mxPoint x="40" y="40" />
              <mxPoint x="40" y="30" />
            </Array>
          </mxGeometry>
        </mxCell>
        <mxCell id="dr_oI7EL4_MaKxA0laTX-54" value="" style="curved=1;endArrow=classic;html=1;rounded=0;endFill=1;" parent="dr_oI7EL4_MaKxA0laTX-51" edge="1">
          <mxGeometry width="50" height="50" relative="1" as="geometry">
            <mxPoint y="50" as="sourcePoint" />
            <mxPoint x="40" y="60" as="targetPoint" />
            <Array as="points">
              <mxPoint y="60" />
              <mxPoint x="20" y="60" />
              <mxPoint x="20" y="40" />
              <mxPoint x="40" y="40" />
              <mxPoint x="40" y="60" />
              <mxPoint x="40" y="50" />
            </Array>
          </mxGeometry>
        </mxCell>
        <mxCell id="dr_oI7EL4_MaKxA0laTX-55" style="edgeStyle=orthogonalEdgeStyle;rounded=0;orthogonalLoop=1;jettySize=auto;html=1;exitX=1;exitY=0.5;exitDx=0;exitDy=0;entryX=0;entryY=0.5;entryDx=0;entryDy=0;" parent="WIyWlLk6GJQsqaUBKTNV-1" source="8ZbKHl81lls4W-tDEg7p-0" target="dr_oI7EL4_MaKxA0laTX-50" edge="1">
          <mxGeometry relative="1" as="geometry" />
        </mxCell>
        <mxCell id="dr_oI7EL4_MaKxA0laTX-57" value="&lt;b&gt;Roofing&lt;br&gt;LPF&lt;/b&gt;" style="text;html=1;align=center;verticalAlign=middle;resizable=0;points=[];autosize=1;strokeColor=none;fillColor=none;" parent="WIyWlLk6GJQsqaUBKTNV-1" vertex="1">
          <mxGeometry x="-415" y="380.5" width="70" height="40" as="geometry" />
        </mxCell>
        <mxCell id="dr_oI7EL4_MaKxA0laTX-84" value="IF quad Demodulator" style="rounded=0;whiteSpace=wrap;html=1;" parent="WIyWlLk6GJQsqaUBKTNV-1" vertex="1">
          <mxGeometry x="970" y="417.75" width="110" height="85.5" as="geometry" />
        </mxCell>
        <mxCell id="dr_oI7EL4_MaKxA0laTX-86" value="AD8339 (best but consider cost) or &lt;br&gt;CMX970Q7(consider IF2)&amp;nbsp;" style="text;html=1;align=center;verticalAlign=middle;resizable=0;points=[];autosize=1;strokeColor=none;fillColor=none;" parent="WIyWlLk6GJQsqaUBKTNV-1" vertex="1">
          <mxGeometry x="930" y="377.75" width="210" height="40" as="geometry" />
        </mxCell>
        <mxCell id="Lw6fX-miKarcc394pqyk-4" style="edgeStyle=orthogonalEdgeStyle;rounded=0;orthogonalLoop=1;jettySize=auto;html=1;exitX=1;exitY=0.25;exitDx=0;exitDy=0;entryX=0;entryY=0.25;entryDx=0;entryDy=0;" parent="WIyWlLk6GJQsqaUBKTNV-1" source="dr_oI7EL4_MaKxA0laTX-87" target="dr_oI7EL4_MaKxA0laTX-93" edge="1">
          <mxGeometry relative="1" as="geometry" />
        </mxCell>
        <mxCell id="Lw6fX-miKarcc394pqyk-6" value="I" style="edgeLabel;html=1;align=center;verticalAlign=middle;resizable=0;points=[];" parent="Lw6fX-miKarcc394pqyk-4" vertex="1" connectable="0">
          <mxGeometry x="-0.0801" y="-1" relative="1" as="geometry">
            <mxPoint as="offset" />
          </mxGeometry>
        </mxCell>
        <mxCell id="Lw6fX-miKarcc394pqyk-5" style="edgeStyle=orthogonalEdgeStyle;rounded=0;orthogonalLoop=1;jettySize=auto;html=1;exitX=1;exitY=0.75;exitDx=0;exitDy=0;entryX=0;entryY=0.75;entryDx=0;entryDy=0;" parent="WIyWlLk6GJQsqaUBKTNV-1" source="dr_oI7EL4_MaKxA0laTX-87" target="dr_oI7EL4_MaKxA0laTX-93" edge="1">
          <mxGeometry relative="1" as="geometry" />
        </mxCell>
        <mxCell id="Lw6fX-miKarcc394pqyk-7" value="Q" style="edgeLabel;html=1;align=center;verticalAlign=middle;resizable=0;points=[];" parent="Lw6fX-miKarcc394pqyk-5" vertex="1" connectable="0">
          <mxGeometry x="0.0625" y="-2" relative="1" as="geometry">
            <mxPoint as="offset" />
          </mxGeometry>
        </mxCell>
        <mxCell id="dr_oI7EL4_MaKxA0laTX-87" value="ADC" style="rounded=0;whiteSpace=wrap;html=1;" parent="WIyWlLk6GJQsqaUBKTNV-1" vertex="1">
          <mxGeometry x="1190" y="415.5" width="70" height="92" as="geometry" />
        </mxCell>
        <mxCell id="dr_oI7EL4_MaKxA0laTX-88" style="edgeStyle=orthogonalEdgeStyle;rounded=0;orthogonalLoop=1;jettySize=auto;html=1;exitX=1;exitY=0.25;exitDx=0;exitDy=0;entryX=0;entryY=0.25;entryDx=0;entryDy=0;" parent="WIyWlLk6GJQsqaUBKTNV-1" source="dr_oI7EL4_MaKxA0laTX-84" target="dr_oI7EL4_MaKxA0laTX-87" edge="1">
          <mxGeometry relative="1" as="geometry">
            <mxPoint x="1140" y="441.5" as="sourcePoint" />
          </mxGeometry>
        </mxCell>
        <mxCell id="dr_oI7EL4_MaKxA0laTX-89" value="I" style="edgeLabel;html=1;align=center;verticalAlign=middle;resizable=0;points=[];" parent="dr_oI7EL4_MaKxA0laTX-88" vertex="1" connectable="0">
          <mxGeometry x="0.2712" y="1" relative="1" as="geometry">
            <mxPoint x="-21" y="1" as="offset" />
          </mxGeometry>
        </mxCell>
        <mxCell id="dr_oI7EL4_MaKxA0laTX-90" style="edgeStyle=orthogonalEdgeStyle;rounded=0;orthogonalLoop=1;jettySize=auto;html=1;exitX=1;exitY=0.79;exitDx=0;exitDy=0;entryX=0;entryY=0.75;entryDx=0;entryDy=0;exitPerimeter=0;" parent="WIyWlLk6GJQsqaUBKTNV-1" source="dr_oI7EL4_MaKxA0laTX-84" target="dr_oI7EL4_MaKxA0laTX-87" edge="1">
          <mxGeometry relative="1" as="geometry">
            <mxPoint x="1140" y="481.5" as="sourcePoint" />
          </mxGeometry>
        </mxCell>
        <mxCell id="dr_oI7EL4_MaKxA0laTX-91" value="Q" style="edgeLabel;html=1;align=center;verticalAlign=middle;resizable=0;points=[];" parent="dr_oI7EL4_MaKxA0laTX-90" vertex="1" connectable="0">
          <mxGeometry x="-0.6254" relative="1" as="geometry">
            <mxPoint x="29" as="offset" />
          </mxGeometry>
        </mxCell>
        <mxCell id="dr_oI7EL4_MaKxA0laTX-93" value="MCU" style="rounded=0;whiteSpace=wrap;html=1;" parent="WIyWlLk6GJQsqaUBKTNV-1" vertex="1">
          <mxGeometry x="1340" y="415.75" width="70" height="92" as="geometry" />
        </mxCell>
        <mxCell id="dr_oI7EL4_MaKxA0laTX-96" value="&lt;font style=&quot;font-size: 18px;&quot;&gt;&lt;b&gt;Control&lt;/b&gt;&lt;/font&gt;" style="text;html=1;align=center;verticalAlign=middle;resizable=0;points=[];autosize=1;strokeColor=none;fillColor=none;" parent="WIyWlLk6GJQsqaUBKTNV-1" vertex="1">
          <mxGeometry x="870" y="781" width="90" height="40" as="geometry" />
        </mxCell>
        <mxCell id="dr_oI7EL4_MaKxA0laTX-100" style="edgeStyle=orthogonalEdgeStyle;rounded=0;orthogonalLoop=1;jettySize=auto;html=1;entryX=0;entryY=0.5;entryDx=0;entryDy=0;" parent="WIyWlLk6GJQsqaUBKTNV-1" source="dr_oI7EL4_MaKxA0laTX-97" target="8ZbKHl81lls4W-tDEg7p-23" edge="1">
          <mxGeometry relative="1" as="geometry" />
        </mxCell>
        <mxCell id="dr_oI7EL4_MaKxA0laTX-97" value="Limitter" style="rounded=0;whiteSpace=wrap;html=1;" parent="WIyWlLk6GJQsqaUBKTNV-1" vertex="1">
          <mxGeometry x="150" y="440" width="70" height="40" as="geometry" />
        </mxCell>
        <mxCell id="dr_oI7EL4_MaKxA0laTX-98" value="5dBm" style="text;html=1;align=center;verticalAlign=middle;resizable=0;points=[];autosize=1;strokeColor=none;fillColor=none;" parent="WIyWlLk6GJQsqaUBKTNV-1" vertex="1">
          <mxGeometry x="180" y="415.75" width="50" height="30" as="geometry" />
        </mxCell>
        <mxCell id="Lw6fX-miKarcc394pqyk-84" style="edgeStyle=orthogonalEdgeStyle;rounded=0;orthogonalLoop=1;jettySize=auto;html=1;entryX=0;entryY=0.5;entryDx=0;entryDy=0;" parent="WIyWlLk6GJQsqaUBKTNV-1" source="dr_oI7EL4_MaKxA0laTX-102" target="dr_oI7EL4_MaKxA0laTX-129" edge="1">
          <mxGeometry relative="1" as="geometry" />
        </mxCell>
        <mxCell id="dr_oI7EL4_MaKxA0laTX-102" value="LNA" style="triangle;whiteSpace=wrap;html=1;" parent="WIyWlLk6GJQsqaUBKTNV-1" vertex="1">
          <mxGeometry x="-203" y="435.5" width="46" height="50" as="geometry" />
        </mxCell>
        <mxCell id="dr_oI7EL4_MaKxA0laTX-103" value="&lt;b&gt;QPB8896&lt;/b&gt;" style="text;html=1;align=center;verticalAlign=middle;resizable=0;points=[];autosize=1;strokeColor=none;fillColor=none;" parent="WIyWlLk6GJQsqaUBKTNV-1" vertex="1">
          <mxGeometry x="-220" y="491" width="80" height="30" as="geometry" />
        </mxCell>
        <mxCell id="dr_oI7EL4_MaKxA0laTX-127" style="edgeStyle=orthogonalEdgeStyle;rounded=0;orthogonalLoop=1;jettySize=auto;html=1;entryX=0;entryY=0.5;entryDx=0;entryDy=0;" parent="WIyWlLk6GJQsqaUBKTNV-1" source="dr_oI7EL4_MaKxA0laTX-104" target="dr_oI7EL4_MaKxA0laTX-97" edge="1">
          <mxGeometry relative="1" as="geometry" />
        </mxCell>
        <mxCell id="dr_oI7EL4_MaKxA0laTX-104" value="LNA" style="triangle;whiteSpace=wrap;html=1;" parent="WIyWlLk6GJQsqaUBKTNV-1" vertex="1">
          <mxGeometry x="67" y="435.5" width="46" height="50" as="geometry" />
        </mxCell>
        <mxCell id="dr_oI7EL4_MaKxA0laTX-105" value="&lt;b&gt;QPB8896&lt;/b&gt;" style="text;html=1;align=center;verticalAlign=middle;resizable=0;points=[];autosize=1;strokeColor=none;fillColor=none;" parent="WIyWlLk6GJQsqaUBKTNV-1" vertex="1">
          <mxGeometry x="50" y="490.5" width="80" height="30" as="geometry" />
        </mxCell>
        <mxCell id="dr_oI7EL4_MaKxA0laTX-116" style="edgeStyle=orthogonalEdgeStyle;rounded=0;orthogonalLoop=1;jettySize=auto;html=1;entryX=0;entryY=0.5;entryDx=0;entryDy=0;" parent="WIyWlLk6GJQsqaUBKTNV-1" source="dr_oI7EL4_MaKxA0laTX-106" target="dr_oI7EL4_MaKxA0laTX-102" edge="1">
          <mxGeometry relative="1" as="geometry">
            <mxPoint x="-150" y="460" as="targetPoint" />
          </mxGeometry>
        </mxCell>
        <mxCell id="dr_oI7EL4_MaKxA0laTX-106" value="LNA" style="triangle;whiteSpace=wrap;html=1;" parent="WIyWlLk6GJQsqaUBKTNV-1" vertex="1">
          <mxGeometry x="-283" y="435.5" width="46" height="50" as="geometry" />
        </mxCell>
        <mxCell id="dr_oI7EL4_MaKxA0laTX-114" value="&lt;b&gt;QPB8896&lt;/b&gt;" style="text;html=1;align=center;verticalAlign=middle;resizable=0;points=[];autosize=1;strokeColor=none;fillColor=none;" parent="WIyWlLk6GJQsqaUBKTNV-1" vertex="1">
          <mxGeometry x="-300" y="491" width="80" height="30" as="geometry" />
        </mxCell>
        <mxCell id="dr_oI7EL4_MaKxA0laTX-115" style="edgeStyle=orthogonalEdgeStyle;rounded=0;orthogonalLoop=1;jettySize=auto;html=1;entryX=0;entryY=0.5;entryDx=0;entryDy=0;" parent="WIyWlLk6GJQsqaUBKTNV-1" source="dr_oI7EL4_MaKxA0laTX-50" target="dr_oI7EL4_MaKxA0laTX-106" edge="1">
          <mxGeometry relative="1" as="geometry" />
        </mxCell>
        <mxCell id="dr_oI7EL4_MaKxA0laTX-120" value="&lt;b&gt;CLA4603-085LF&lt;/b&gt;" style="text;html=1;align=center;verticalAlign=middle;resizable=0;points=[];autosize=1;strokeColor=none;fillColor=none;" parent="WIyWlLk6GJQsqaUBKTNV-1" vertex="1">
          <mxGeometry x="130" y="485.5" width="110" height="30" as="geometry" />
        </mxCell>
        <mxCell id="dr_oI7EL4_MaKxA0laTX-121" value="L-C&lt;br&gt;f_c = 800MHz" style="text;html=1;align=center;verticalAlign=middle;resizable=0;points=[];autosize=1;strokeColor=none;fillColor=none;" parent="WIyWlLk6GJQsqaUBKTNV-1" vertex="1">
          <mxGeometry x="-440" y="505.5" width="100" height="40" as="geometry" />
        </mxCell>
        <mxCell id="dr_oI7EL4_MaKxA0laTX-128" value="&lt;b&gt;&lt;font style=&quot;font-size: 13px;&quot;&gt;LT5560&lt;/font&gt;&lt;/b&gt;" style="text;html=1;align=center;verticalAlign=middle;resizable=0;points=[];autosize=1;strokeColor=none;fillColor=none;" parent="WIyWlLk6GJQsqaUBKTNV-1" vertex="1">
          <mxGeometry x="310" y="400" width="70" height="30" as="geometry" />
        </mxCell>
        <mxCell id="Lw6fX-miKarcc394pqyk-85" style="edgeStyle=orthogonalEdgeStyle;rounded=0;orthogonalLoop=1;jettySize=auto;html=1;" parent="WIyWlLk6GJQsqaUBKTNV-1" source="dr_oI7EL4_MaKxA0laTX-129" target="dr_oI7EL4_MaKxA0laTX-133" edge="1">
          <mxGeometry relative="1" as="geometry" />
        </mxCell>
        <mxCell id="dr_oI7EL4_MaKxA0laTX-129" value="LNA" style="triangle;whiteSpace=wrap;html=1;" parent="WIyWlLk6GJQsqaUBKTNV-1" vertex="1">
          <mxGeometry x="-123" y="435" width="46" height="50" as="geometry" />
        </mxCell>
        <mxCell id="dr_oI7EL4_MaKxA0laTX-130" value="&lt;b&gt;QPB8896&lt;/b&gt;" style="text;html=1;align=center;verticalAlign=middle;resizable=0;points=[];autosize=1;strokeColor=none;fillColor=none;" parent="WIyWlLk6GJQsqaUBKTNV-1" vertex="1">
          <mxGeometry x="-137" y="491" width="80" height="30" as="geometry" />
        </mxCell>
        <mxCell id="Lw6fX-miKarcc394pqyk-86" style="edgeStyle=orthogonalEdgeStyle;rounded=0;orthogonalLoop=1;jettySize=auto;html=1;entryX=0;entryY=0.5;entryDx=0;entryDy=0;" parent="WIyWlLk6GJQsqaUBKTNV-1" source="dr_oI7EL4_MaKxA0laTX-133" target="dr_oI7EL4_MaKxA0laTX-104" edge="1">
          <mxGeometry relative="1" as="geometry" />
        </mxCell>
        <mxCell id="dr_oI7EL4_MaKxA0laTX-133" value="Limitter" style="rounded=0;whiteSpace=wrap;html=1;" parent="WIyWlLk6GJQsqaUBKTNV-1" vertex="1">
          <mxGeometry x="-50" y="440" width="70" height="40" as="geometry" />
        </mxCell>
        <mxCell id="dr_oI7EL4_MaKxA0laTX-134" value="5dBm" style="text;html=1;align=center;verticalAlign=middle;resizable=0;points=[];autosize=1;strokeColor=none;fillColor=none;" parent="WIyWlLk6GJQsqaUBKTNV-1" vertex="1">
          <mxGeometry x="-40" y="415.75" width="50" height="30" as="geometry" />
        </mxCell>
        <mxCell id="dr_oI7EL4_MaKxA0laTX-135" value="&lt;b&gt;CLA4603-085LF&lt;/b&gt;" style="text;html=1;align=center;verticalAlign=middle;resizable=0;points=[];autosize=1;strokeColor=none;fillColor=none;" parent="WIyWlLk6GJQsqaUBKTNV-1" vertex="1">
          <mxGeometry x="-70" y="485.5" width="110" height="30" as="geometry" />
        </mxCell>
        <mxCell id="Lw6fX-miKarcc394pqyk-2" value="&lt;b&gt;&lt;font style=&quot;font-size: 13px;&quot;&gt;LT5560&lt;/font&gt;&lt;/b&gt;" style="text;html=1;align=center;verticalAlign=middle;resizable=0;points=[];autosize=1;strokeColor=none;fillColor=none;" parent="WIyWlLk6GJQsqaUBKTNV-1" vertex="1">
          <mxGeometry x="586" y="405" width="70" height="30" as="geometry" />
        </mxCell>
        <mxCell id="Lw6fX-miKarcc394pqyk-8" value="&lt;b&gt;&lt;font style=&quot;font-size: 13px;&quot;&gt;AD7324BRUZ&lt;/font&gt;&lt;/b&gt;" style="text;html=1;align=center;verticalAlign=middle;resizable=0;points=[];autosize=1;strokeColor=none;fillColor=none;" parent="WIyWlLk6GJQsqaUBKTNV-1" vertex="1">
          <mxGeometry x="1170" y="382.75" width="110" height="30" as="geometry" />
        </mxCell>
        <mxCell id="Lw6fX-miKarcc394pqyk-9" value="Pi-Pico 2040" style="text;html=1;align=center;verticalAlign=middle;resizable=0;points=[];autosize=1;strokeColor=none;fillColor=none;" parent="WIyWlLk6GJQsqaUBKTNV-1" vertex="1">
          <mxGeometry x="1330" y="385.75" width="90" height="30" as="geometry" />
        </mxCell>
        <mxCell id="Lw6fX-miKarcc394pqyk-10" value="L-C&lt;br&gt;f_c=160MHz" style="text;html=1;align=center;verticalAlign=middle;resizable=0;points=[];autosize=1;strokeColor=none;fillColor=none;" parent="WIyWlLk6GJQsqaUBKTNV-1" vertex="1">
          <mxGeometry x="451" y="500.5" width="90" height="40" as="geometry" />
        </mxCell>
        <mxCell id="Lw6fX-miKarcc394pqyk-14" style="edgeStyle=orthogonalEdgeStyle;rounded=0;orthogonalLoop=1;jettySize=auto;html=1;" parent="WIyWlLk6GJQsqaUBKTNV-1" source="Lw6fX-miKarcc394pqyk-11" target="Qe9bErmI2PUYyQ3oxX9a-29" edge="1">
          <mxGeometry relative="1" as="geometry" />
        </mxCell>
        <mxCell id="Lw6fX-miKarcc394pqyk-13" style="edgeStyle=orthogonalEdgeStyle;rounded=0;orthogonalLoop=1;jettySize=auto;html=1;entryX=0.6;entryY=1;entryDx=0;entryDy=0;entryPerimeter=0;" parent="WIyWlLk6GJQsqaUBKTNV-1" source="Lw6fX-miKarcc394pqyk-11" target="Qe9bErmI2PUYyQ3oxX9a-16" edge="1">
          <mxGeometry relative="1" as="geometry" />
        </mxCell>
        <mxCell id="Lw6fX-miKarcc394pqyk-17" value="&lt;font style=&quot;&quot;&gt;&lt;span style=&quot;font-size: 21px;&quot;&gt;POWER BUDGET(dBm)&amp;nbsp; &lt;/span&gt;&lt;span style=&quot;font-weight: normal;&quot;&gt;&lt;font style=&quot;font-size: 12px;&quot;&gt;*approx&lt;/font&gt;&lt;/span&gt;&lt;/font&gt;" style="swimlane;childLayout=stackLayout;resizeParent=1;resizeParentMax=0;startSize=40;html=1;" parent="WIyWlLk6GJQsqaUBKTNV-1" vertex="1">
          <mxGeometry x="-410" y="605" width="580" height="330" as="geometry" />
        </mxCell>
        <mxCell id="Lw6fX-miKarcc394pqyk-18" value="ANTENNA RX" style="swimlane;startSize=70;html=1;" parent="Lw6fX-miKarcc394pqyk-17" vertex="1">
          <mxGeometry y="40" width="120" height="290" as="geometry" />
        </mxCell>
        <mxCell id="Lw6fX-miKarcc394pqyk-41" value="-40" style="text;html=1;align=center;verticalAlign=middle;resizable=0;points=[];autosize=1;strokeColor=none;fillColor=none;fontSize=15;fontStyle=1" parent="Lw6fX-miKarcc394pqyk-18" vertex="1">
          <mxGeometry x="26.999999999999545" y="80" width="50" height="30" as="geometry" />
        </mxCell>
        <mxCell id="Lw6fX-miKarcc394pqyk-19" value="TUNER MODULE&lt;br&gt;(-3dBm)" style="swimlane;startSize=70;html=1;" parent="Lw6fX-miKarcc394pqyk-17" vertex="1">
          <mxGeometry x="120" y="40" width="120" height="290" as="geometry" />
        </mxCell>
        <mxCell id="Lw6fX-miKarcc394pqyk-42" value="-43" style="text;html=1;align=center;verticalAlign=middle;resizable=0;points=[];autosize=1;strokeColor=none;fillColor=none;fontSize=15;fontStyle=1" parent="Lw6fX-miKarcc394pqyk-19" vertex="1">
          <mxGeometry x="34.999999999999545" y="80" width="50" height="30" as="geometry" />
        </mxCell>
        <mxCell id="Lw6fX-miKarcc394pqyk-22" value="FILTER MODULE&lt;br&gt;(-1.5dBm)" style="swimlane;startSize=70;html=1;" parent="Lw6fX-miKarcc394pqyk-17" vertex="1">
          <mxGeometry x="240" y="40" width="120" height="290" as="geometry" />
        </mxCell>
        <mxCell id="Lw6fX-miKarcc394pqyk-43" value="-41.5" style="text;html=1;align=center;verticalAlign=middle;resizable=0;points=[];autosize=1;strokeColor=none;fillColor=none;fontSize=15;fontStyle=1" parent="Lw6fX-miKarcc394pqyk-22" vertex="1">
          <mxGeometry x="29.999999999999545" y="80" width="60" height="30" as="geometry" />
        </mxCell>
        <mxCell id="Lw6fX-miKarcc394pqyk-20" value="AMPLIFICATION&lt;br&gt;&amp;nbsp;MODULE&lt;br&gt;(+86.5dBm**)" style="swimlane;startSize=70;html=1;" parent="Lw6fX-miKarcc394pqyk-17" vertex="1">
          <mxGeometry x="360" y="40" width="120" height="290" as="geometry">
            <mxRectangle x="360" y="20" width="510" height="460" as="alternateBounds" />
          </mxGeometry>
        </mxCell>
        <mxCell id="Lw6fX-miKarcc394pqyk-46" value="5" style="text;html=1;align=center;verticalAlign=middle;resizable=0;points=[];autosize=1;strokeColor=none;fillColor=none;fontSize=15;fontStyle=1" parent="Lw6fX-miKarcc394pqyk-20" vertex="1">
          <mxGeometry x="39.999999999999545" y="80" width="30" height="30" as="geometry" />
        </mxCell>
        <mxCell id="Lw6fX-miKarcc394pqyk-23" value="ANALOG-&lt;br&gt;PROCESSING&lt;br&gt;MODULE&lt;br&gt;(-1dBm)" style="swimlane;startSize=70;html=1;" parent="Lw6fX-miKarcc394pqyk-17" vertex="1">
          <mxGeometry x="480" y="40" width="100" height="290" as="geometry">
            <mxRectangle x="360" y="20" width="510" height="460" as="alternateBounds" />
          </mxGeometry>
        </mxCell>
        <mxCell id="Lw6fX-miKarcc394pqyk-45" value="4" style="text;html=1;align=center;verticalAlign=middle;resizable=0;points=[];autosize=1;strokeColor=none;fillColor=none;fontSize=15;fontStyle=1" parent="Lw6fX-miKarcc394pqyk-23" vertex="1">
          <mxGeometry x="34.999999999999545" y="80" width="30" height="30" as="geometry" />
        </mxCell>
        <mxCell id="Lw6fX-miKarcc394pqyk-34" value="&lt;b&gt;&lt;font style=&quot;font-size: 20px;&quot;&gt;Antenna&lt;/font&gt;&lt;/b&gt;" style="text;html=1;align=center;verticalAlign=middle;resizable=0;points=[];autosize=1;strokeColor=none;fillColor=none;" parent="WIyWlLk6GJQsqaUBKTNV-1" vertex="1">
          <mxGeometry x="-1010" y="327.63" width="100" height="40" as="geometry" />
        </mxCell>
        <mxCell id="Lw6fX-miKarcc394pqyk-35" value="&lt;font style=&quot;font-size: 20px;&quot;&gt;&lt;b&gt;Tuner&lt;br&gt;Module&lt;/b&gt;&lt;/font&gt;" style="text;html=1;align=center;verticalAlign=middle;resizable=0;points=[];autosize=1;strokeColor=none;fillColor=none;" parent="WIyWlLk6GJQsqaUBKTNV-1" vertex="1">
          <mxGeometry x="-894" y="307.63" width="90" height="60" as="geometry" />
        </mxCell>
        <mxCell id="Lw6fX-miKarcc394pqyk-36" value="&lt;b&gt;&lt;font style=&quot;font-size: 20px;&quot;&gt;FILTER MODULE&lt;/font&gt;&lt;/b&gt;" style="text;html=1;align=center;verticalAlign=middle;resizable=0;points=[];autosize=1;strokeColor=none;fillColor=none;" parent="WIyWlLk6GJQsqaUBKTNV-1" vertex="1">
          <mxGeometry x="-740" y="330" width="180" height="40" as="geometry" />
        </mxCell>
        <mxCell id="Lw6fX-miKarcc394pqyk-37" value="&lt;b&gt;&lt;font style=&quot;font-size: 20px;&quot;&gt;AMPLIFICATION MODULE&lt;/font&gt;&lt;/b&gt;" style="text;html=1;align=center;verticalAlign=middle;resizable=0;points=[];autosize=1;strokeColor=none;fillColor=none;" parent="WIyWlLk6GJQsqaUBKTNV-1" vertex="1">
          <mxGeometry x="-210" y="317.63" width="270" height="40" as="geometry" />
        </mxCell>
        <mxCell id="Lw6fX-miKarcc394pqyk-38" value="&lt;font style=&quot;font-size: 20px;&quot;&gt;&lt;b&gt;ANALOG_PROCESSING MODULE&lt;/b&gt;&lt;/font&gt;" style="text;html=1;align=center;verticalAlign=middle;resizable=0;points=[];autosize=1;strokeColor=none;fillColor=none;" parent="WIyWlLk6GJQsqaUBKTNV-1" vertex="1">
          <mxGeometry x="365" y="317.63" width="350" height="40" as="geometry" />
        </mxCell>
        <mxCell id="Lw6fX-miKarcc394pqyk-39" value="&lt;b&gt;&lt;font style=&quot;font-size: 20px;&quot;&gt;DIGITAL-PROCESSING MODULE&lt;/font&gt;&lt;/b&gt;" style="text;html=1;align=center;verticalAlign=middle;resizable=0;points=[];autosize=1;strokeColor=none;fillColor=none;" parent="WIyWlLk6GJQsqaUBKTNV-1" vertex="1">
          <mxGeometry x="1010" y="317.63" width="330" height="40" as="geometry" />
        </mxCell>
        <mxCell id="Lw6fX-miKarcc394pqyk-47" value="-60" style="text;html=1;align=center;verticalAlign=middle;resizable=0;points=[];autosize=1;strokeColor=none;fillColor=none;fontSize=15;fontStyle=1" parent="WIyWlLk6GJQsqaUBKTNV-1" vertex="1">
          <mxGeometry x="-383" y="770" width="50" height="30" as="geometry" />
        </mxCell>
        <mxCell id="Lw6fX-miKarcc394pqyk-48" value="-57" style="text;html=1;align=center;verticalAlign=middle;resizable=0;points=[];autosize=1;strokeColor=none;fillColor=none;fontSize=15;fontStyle=1" parent="WIyWlLk6GJQsqaUBKTNV-1" vertex="1">
          <mxGeometry x="-257" y="770" width="50" height="30" as="geometry" />
        </mxCell>
        <mxCell id="Lw6fX-miKarcc394pqyk-49" value="-55.5" style="text;html=1;align=center;verticalAlign=middle;resizable=0;points=[];autosize=1;strokeColor=none;fillColor=none;fontSize=15;fontStyle=1" parent="WIyWlLk6GJQsqaUBKTNV-1" vertex="1">
          <mxGeometry x="-142" y="770" width="60" height="30" as="geometry" />
        </mxCell>
        <mxCell id="Lw6fX-miKarcc394pqyk-50" value="5" style="text;html=1;align=center;verticalAlign=middle;resizable=0;points=[];autosize=1;strokeColor=none;fillColor=none;fontSize=15;fontStyle=1" parent="WIyWlLk6GJQsqaUBKTNV-1" vertex="1">
          <mxGeometry x="-7" y="770" width="30" height="30" as="geometry" />
        </mxCell>
        <mxCell id="Lw6fX-miKarcc394pqyk-51" value="4" style="text;html=1;align=center;verticalAlign=middle;resizable=0;points=[];autosize=1;strokeColor=none;fillColor=none;fontSize=15;fontStyle=1" parent="WIyWlLk6GJQsqaUBKTNV-1" vertex="1">
          <mxGeometry x="103" y="770" width="30" height="30" as="geometry" />
        </mxCell>
        <mxCell id="Lw6fX-miKarcc394pqyk-53" value="-80" style="text;html=1;align=center;verticalAlign=middle;resizable=0;points=[];autosize=1;strokeColor=none;fillColor=none;fontSize=15;fontStyle=1" parent="WIyWlLk6GJQsqaUBKTNV-1" vertex="1">
          <mxGeometry x="-383" y="821" width="50" height="30" as="geometry" />
        </mxCell>
        <mxCell id="Lw6fX-miKarcc394pqyk-54" value="-77" style="text;html=1;align=center;verticalAlign=middle;resizable=0;points=[];autosize=1;strokeColor=none;fillColor=none;fontSize=15;fontStyle=1" parent="WIyWlLk6GJQsqaUBKTNV-1" vertex="1">
          <mxGeometry x="-257" y="821" width="50" height="30" as="geometry" />
        </mxCell>
        <mxCell id="Lw6fX-miKarcc394pqyk-55" value="-75.5" style="text;html=1;align=center;verticalAlign=middle;resizable=0;points=[];autosize=1;strokeColor=none;fillColor=none;fontSize=15;fontStyle=1" parent="WIyWlLk6GJQsqaUBKTNV-1" vertex="1">
          <mxGeometry x="-142" y="821" width="60" height="30" as="geometry" />
        </mxCell>
        <mxCell id="Lw6fX-miKarcc394pqyk-56" value="5" style="text;html=1;align=center;verticalAlign=middle;resizable=0;points=[];autosize=1;strokeColor=none;fillColor=none;fontSize=15;fontStyle=1" parent="WIyWlLk6GJQsqaUBKTNV-1" vertex="1">
          <mxGeometry x="-7" y="821" width="30" height="30" as="geometry" />
        </mxCell>
        <mxCell id="Lw6fX-miKarcc394pqyk-57" value="4" style="text;html=1;align=center;verticalAlign=middle;resizable=0;points=[];autosize=1;strokeColor=none;fillColor=none;fontSize=15;fontStyle=1" parent="WIyWlLk6GJQsqaUBKTNV-1" vertex="1">
          <mxGeometry x="103" y="821" width="30" height="30" as="geometry" />
        </mxCell>
        <mxCell id="Lw6fX-miKarcc394pqyk-78" value="-100" style="text;html=1;align=center;verticalAlign=middle;resizable=0;points=[];autosize=1;strokeColor=none;fillColor=none;fontSize=15;fontStyle=1" parent="WIyWlLk6GJQsqaUBKTNV-1" vertex="1">
          <mxGeometry x="-384" y="873" width="50" height="30" as="geometry" />
        </mxCell>
        <mxCell id="Lw6fX-miKarcc394pqyk-79" value="97" style="text;html=1;align=center;verticalAlign=middle;resizable=0;points=[];autosize=1;strokeColor=none;fillColor=none;fontSize=15;fontStyle=1" parent="WIyWlLk6GJQsqaUBKTNV-1" vertex="1">
          <mxGeometry x="-253" y="873" width="40" height="30" as="geometry" />
        </mxCell>
        <mxCell id="Lw6fX-miKarcc394pqyk-80" value="-95.5" style="text;html=1;align=center;verticalAlign=middle;resizable=0;points=[];autosize=1;strokeColor=none;fillColor=none;fontSize=15;fontStyle=1" parent="WIyWlLk6GJQsqaUBKTNV-1" vertex="1">
          <mxGeometry x="-143" y="873" width="60" height="30" as="geometry" />
        </mxCell>
        <mxCell id="Lw6fX-miKarcc394pqyk-81" value="-10.5" style="text;html=1;align=center;verticalAlign=middle;resizable=0;points=[];autosize=1;strokeColor=none;fillColor=none;fontSize=15;fontStyle=1" parent="WIyWlLk6GJQsqaUBKTNV-1" vertex="1">
          <mxGeometry x="-23" y="873" width="60" height="30" as="geometry" />
        </mxCell>
        <mxCell id="Lw6fX-miKarcc394pqyk-82" value="-9.5" style="text;html=1;align=center;verticalAlign=middle;resizable=0;points=[];autosize=1;strokeColor=none;fillColor=none;fontSize=15;fontStyle=1" parent="WIyWlLk6GJQsqaUBKTNV-1" vertex="1">
          <mxGeometry x="92" y="873" width="50" height="30" as="geometry" />
        </mxCell>
        <mxCell id="Lw6fX-miKarcc394pqyk-89" value="&lt;font style=&quot;font-size: 13px;&quot;&gt;&lt;b&gt;Crystal Based:&lt;br&gt;ABL S2-5.000MHZ-D4Y-T&lt;/b&gt;&lt;/font&gt;" style="text;html=1;align=center;verticalAlign=middle;resizable=0;points=[];autosize=1;strokeColor=none;fillColor=none;" parent="WIyWlLk6GJQsqaUBKTNV-1" vertex="1">
          <mxGeometry x="680" y="500.5" width="180" height="40" as="geometry" />
        </mxCell>
        <mxCell id="hkPXWiVvAHIRFbyyTnoW-0" value="" style="group" parent="WIyWlLk6GJQsqaUBKTNV-1" vertex="1" connectable="0">
          <mxGeometry x="414" y="620" width="143" height="70" as="geometry" />
        </mxCell>
        <mxCell id="Lw6fX-miKarcc394pqyk-11" value="" style="rounded=0;whiteSpace=wrap;html=1;" parent="hkPXWiVvAHIRFbyyTnoW-0" vertex="1">
          <mxGeometry y="30" width="143" height="40" as="geometry" />
        </mxCell>
        <mxCell id="Lw6fX-miKarcc394pqyk-12" value="&lt;b&gt;&lt;font style=&quot;font-size: 15px;&quot;&gt;DDS&lt;/font&gt;&lt;/b&gt;" style="text;html=1;align=center;verticalAlign=middle;resizable=0;points=[];autosize=1;strokeColor=none;fillColor=none;" parent="hkPXWiVvAHIRFbyyTnoW-0" vertex="1">
          <mxGeometry x="38" y="35" width="60" height="30" as="geometry" />
        </mxCell>
        <mxCell id="Lw6fX-miKarcc394pqyk-16" value="&lt;b&gt;&lt;font style=&quot;font-size: 13px;&quot;&gt;AD9951&lt;/font&gt;&lt;/b&gt;" style="text;html=1;align=center;verticalAlign=middle;resizable=0;points=[];autosize=1;strokeColor=none;fillColor=none;" parent="hkPXWiVvAHIRFbyyTnoW-0" vertex="1">
          <mxGeometry x="38" width="70" height="30" as="geometry" />
        </mxCell>
      </root>
    </mxGraphModel>
  </diagram>
  <diagram id="gETZfYYdfE9pjgUt4PxE" name="TX_Chain">
    <mxGraphModel dx="3595" dy="1138" grid="1" gridSize="10" guides="1" tooltips="1" connect="1" arrows="1" fold="1" page="1" pageScale="1" pageWidth="850" pageHeight="1100" math="0" shadow="0">
      <root>
        <mxCell id="0" />
        <mxCell id="1" parent="0" />
        <mxCell id="toks5-9g-l8L-j17rTKh-156" value="" style="rounded=0;whiteSpace=wrap;html=1;dashed=1;dashPattern=8 8;" vertex="1" parent="1">
          <mxGeometry x="-460" y="350" width="670" height="210" as="geometry" />
        </mxCell>
        <mxCell id="toks5-9g-l8L-j17rTKh-1" value="" style="rounded=0;whiteSpace=wrap;html=1;dashed=1;dashPattern=8 8;" vertex="1" parent="1">
          <mxGeometry x="315.5" y="605" width="340" height="100" as="geometry" />
        </mxCell>
        <mxCell id="toks5-9g-l8L-j17rTKh-2" value="" style="rounded=0;whiteSpace=wrap;html=1;dashed=1;dashPattern=8 8;" vertex="1" parent="1">
          <mxGeometry x="890" y="320" width="590" height="300" as="geometry" />
        </mxCell>
        <mxCell id="toks5-9g-l8L-j17rTKh-3" value="" style="rounded=0;whiteSpace=wrap;html=1;dashed=1;dashPattern=8 8;" vertex="1" parent="1">
          <mxGeometry x="267" y="369.75" width="593" height="220.25" as="geometry" />
        </mxCell>
        <mxCell id="toks5-9g-l8L-j17rTKh-4" style="edgeStyle=orthogonalEdgeStyle;rounded=0;orthogonalLoop=1;jettySize=auto;html=1;entryX=0.5;entryY=1;entryDx=0;entryDy=0;endSize=20.078699999999998;exitX=0.5;exitY=1;exitDx=0;exitDy=0;" edge="1" parent="1" source="toks5-9g-l8L-j17rTKh-74" target="toks5-9g-l8L-j17rTKh-144">
          <mxGeometry relative="1" as="geometry">
            <Array as="points">
              <mxPoint x="1225" y="507" />
              <mxPoint x="1225" y="760" />
              <mxPoint x="486" y="760" />
            </Array>
          </mxGeometry>
        </mxCell>
        <mxCell id="toks5-9g-l8L-j17rTKh-5" value="" style="rounded=0;whiteSpace=wrap;html=1;dashed=1;dashPattern=8 8;" vertex="1" parent="1">
          <mxGeometry x="-779" y="375.5" width="279" height="170" as="geometry" />
        </mxCell>
        <mxCell id="toks5-9g-l8L-j17rTKh-7" value="" style="rounded=0;whiteSpace=wrap;html=1;dashed=1;dashPattern=8 8;" vertex="1" parent="1">
          <mxGeometry x="-894" y="369.75" width="100" height="170" as="geometry" />
        </mxCell>
        <mxCell id="toks5-9g-l8L-j17rTKh-8" value="" style="rounded=0;whiteSpace=wrap;html=1;dashed=1;dashPattern=8 8;" vertex="1" parent="1">
          <mxGeometry x="-1009" y="370" width="100" height="170" as="geometry" />
        </mxCell>
        <mxCell id="toks5-9g-l8L-j17rTKh-9" style="edgeStyle=orthogonalEdgeStyle;rounded=0;orthogonalLoop=1;jettySize=auto;html=1;entryX=0;entryY=0.5;entryDx=0;entryDy=0;startArrow=classic;startFill=1;endArrow=none;endFill=0;" edge="1" parent="1" source="toks5-9g-l8L-j17rTKh-10" target="toks5-9g-l8L-j17rTKh-13">
          <mxGeometry relative="1" as="geometry" />
        </mxCell>
        <mxCell id="toks5-9g-l8L-j17rTKh-10" value="Limitter" style="rounded=0;whiteSpace=wrap;html=1;" vertex="1" parent="1">
          <mxGeometry x="-759" y="440" width="70" height="40" as="geometry" />
        </mxCell>
        <mxCell id="toks5-9g-l8L-j17rTKh-11" value="" style="endArrow=none;html=1;rounded=0;entryX=0;entryY=0.5;entryDx=0;entryDy=0;startArrow=classic;startFill=1;endFill=0;" edge="1" parent="1" source="toks5-9g-l8L-j17rTKh-38" target="toks5-9g-l8L-j17rTKh-10">
          <mxGeometry width="50" height="50" relative="1" as="geometry">
            <mxPoint x="-929" y="460" as="sourcePoint" />
            <mxPoint x="-619" y="410" as="targetPoint" />
          </mxGeometry>
        </mxCell>
        <mxCell id="toks5-9g-l8L-j17rTKh-12" value="" style="group" vertex="1" connectable="0" parent="1">
          <mxGeometry x="-629" y="420" width="100" height="80" as="geometry" />
        </mxCell>
        <mxCell id="toks5-9g-l8L-j17rTKh-13" value="" style="rounded=0;whiteSpace=wrap;html=1;" vertex="1" parent="toks5-9g-l8L-j17rTKh-12">
          <mxGeometry width="100" height="80" as="geometry" />
        </mxCell>
        <mxCell id="toks5-9g-l8L-j17rTKh-14" value="" style="group" vertex="1" connectable="0" parent="toks5-9g-l8L-j17rTKh-12">
          <mxGeometry x="30" y="10" width="40" height="60" as="geometry" />
        </mxCell>
        <mxCell id="toks5-9g-l8L-j17rTKh-15" value="" style="curved=1;endArrow=dash;html=1;rounded=0;endFill=0;" edge="1" parent="toks5-9g-l8L-j17rTKh-14">
          <mxGeometry width="50" height="50" relative="1" as="geometry">
            <mxPoint y="10" as="sourcePoint" />
            <mxPoint x="40" y="20" as="targetPoint" />
            <Array as="points">
              <mxPoint y="20" />
              <mxPoint x="20" y="20" />
              <mxPoint x="20" />
              <mxPoint x="40" />
              <mxPoint x="40" y="20" />
              <mxPoint x="40" y="10" />
            </Array>
          </mxGeometry>
        </mxCell>
        <mxCell id="toks5-9g-l8L-j17rTKh-16" value="" style="curved=1;endArrow=blockThin;html=1;rounded=0;endFill=1;" edge="1" parent="toks5-9g-l8L-j17rTKh-14">
          <mxGeometry width="50" height="50" relative="1" as="geometry">
            <mxPoint y="30" as="sourcePoint" />
            <mxPoint x="40" y="40" as="targetPoint" />
            <Array as="points">
              <mxPoint y="40" />
              <mxPoint x="20" y="40" />
              <mxPoint x="20" y="20" />
              <mxPoint x="40" y="20" />
              <mxPoint x="40" y="40" />
              <mxPoint x="40" y="30" />
            </Array>
          </mxGeometry>
        </mxCell>
        <mxCell id="toks5-9g-l8L-j17rTKh-17" value="" style="curved=1;endArrow=dash;html=1;rounded=0;endFill=0;" edge="1" parent="toks5-9g-l8L-j17rTKh-14">
          <mxGeometry width="50" height="50" relative="1" as="geometry">
            <mxPoint y="50" as="sourcePoint" />
            <mxPoint x="40" y="60" as="targetPoint" />
            <Array as="points">
              <mxPoint y="60" />
              <mxPoint x="20" y="60" />
              <mxPoint x="20" y="40" />
              <mxPoint x="40" y="40" />
              <mxPoint x="40" y="60" />
              <mxPoint x="40" y="50" />
            </Array>
          </mxGeometry>
        </mxCell>
        <mxCell id="toks5-9g-l8L-j17rTKh-18" value="&lt;b&gt;&lt;font style=&quot;font-size: 14px;&quot;&gt;BPF&lt;/font&gt;&lt;/b&gt;" style="text;html=1;align=center;verticalAlign=middle;resizable=0;points=[];autosize=1;strokeColor=none;fillColor=none;" vertex="1" parent="1">
          <mxGeometry x="-604" y="500" width="50" height="30" as="geometry" />
        </mxCell>
        <mxCell id="toks5-9g-l8L-j17rTKh-19" style="edgeStyle=orthogonalEdgeStyle;rounded=0;orthogonalLoop=1;jettySize=auto;html=1;entryX=0;entryY=0.5;entryDx=0;entryDy=0;startArrow=classic;startFill=1;endArrow=none;endFill=0;" edge="1" parent="1" source="toks5-9g-l8L-j17rTKh-21" target="toks5-9g-l8L-j17rTKh-23">
          <mxGeometry relative="1" as="geometry">
            <mxPoint x="340.9999999999998" y="460" as="targetPoint" />
          </mxGeometry>
        </mxCell>
        <mxCell id="toks5-9g-l8L-j17rTKh-20" value="IF1:&lt;div&gt;3MHz&lt;/div&gt;" style="edgeLabel;html=1;align=center;verticalAlign=middle;resizable=0;points=[];" vertex="1" connectable="0" parent="toks5-9g-l8L-j17rTKh-19">
          <mxGeometry x="-0.3965" y="2" relative="1" as="geometry">
            <mxPoint x="12" y="2" as="offset" />
          </mxGeometry>
        </mxCell>
        <mxCell id="toks5-9g-l8L-j17rTKh-21" value="" style="shape=sumEllipse;perimeter=ellipsePerimeter;whiteSpace=wrap;html=1;backgroundOutline=1;" vertex="1" parent="1">
          <mxGeometry x="320" y="435" width="50" height="50" as="geometry" />
        </mxCell>
        <mxCell id="toks5-9g-l8L-j17rTKh-22" value="" style="group" vertex="1" connectable="0" parent="1">
          <mxGeometry x="441" y="420.5" width="100" height="80" as="geometry" />
        </mxCell>
        <mxCell id="toks5-9g-l8L-j17rTKh-23" value="" style="rounded=0;whiteSpace=wrap;html=1;" vertex="1" parent="toks5-9g-l8L-j17rTKh-22">
          <mxGeometry width="100" height="80" as="geometry" />
        </mxCell>
        <mxCell id="toks5-9g-l8L-j17rTKh-24" value="" style="group" vertex="1" connectable="0" parent="toks5-9g-l8L-j17rTKh-22">
          <mxGeometry x="30" y="10" width="40" height="60" as="geometry" />
        </mxCell>
        <mxCell id="toks5-9g-l8L-j17rTKh-25" value="" style="curved=1;endArrow=dash;html=1;rounded=0;endFill=0;" edge="1" parent="toks5-9g-l8L-j17rTKh-24">
          <mxGeometry width="50" height="50" relative="1" as="geometry">
            <mxPoint y="10" as="sourcePoint" />
            <mxPoint x="40" y="20" as="targetPoint" />
            <Array as="points">
              <mxPoint y="20" />
              <mxPoint x="20" y="20" />
              <mxPoint x="20" />
              <mxPoint x="40" />
              <mxPoint x="40" y="20" />
              <mxPoint x="40" y="10" />
            </Array>
          </mxGeometry>
        </mxCell>
        <mxCell id="toks5-9g-l8L-j17rTKh-26" value="" style="curved=1;endArrow=blockThin;html=1;rounded=0;endFill=1;" edge="1" parent="toks5-9g-l8L-j17rTKh-24">
          <mxGeometry width="50" height="50" relative="1" as="geometry">
            <mxPoint y="30" as="sourcePoint" />
            <mxPoint x="40" y="40" as="targetPoint" />
            <Array as="points">
              <mxPoint y="40" />
              <mxPoint x="20" y="40" />
              <mxPoint x="20" y="20" />
              <mxPoint x="40" y="20" />
              <mxPoint x="40" y="40" />
              <mxPoint x="40" y="30" />
            </Array>
          </mxGeometry>
        </mxCell>
        <mxCell id="toks5-9g-l8L-j17rTKh-27" value="" style="curved=1;endArrow=dash;html=1;rounded=0;endFill=0;" edge="1" parent="toks5-9g-l8L-j17rTKh-24">
          <mxGeometry width="50" height="50" relative="1" as="geometry">
            <mxPoint y="50" as="sourcePoint" />
            <mxPoint x="40" y="60" as="targetPoint" />
            <Array as="points">
              <mxPoint y="60" />
              <mxPoint x="20" y="60" />
              <mxPoint x="20" y="40" />
              <mxPoint x="40" y="40" />
              <mxPoint x="40" y="60" />
              <mxPoint x="40" y="50" />
            </Array>
          </mxGeometry>
        </mxCell>
        <mxCell id="toks5-9g-l8L-j17rTKh-28" value="&lt;b&gt;&lt;font style=&quot;font-size: 14px;&quot;&gt;BPF&lt;/font&gt;&lt;/b&gt;" style="text;html=1;align=center;verticalAlign=middle;resizable=0;points=[];autosize=1;strokeColor=none;fillColor=none;" vertex="1" parent="1">
          <mxGeometry x="466" y="390.5" width="50" height="30" as="geometry" />
        </mxCell>
        <mxCell id="toks5-9g-l8L-j17rTKh-29" value="" style="group" vertex="1" connectable="0" parent="1">
          <mxGeometry x="-1009" y="400" width="100" height="112" as="geometry" />
        </mxCell>
        <mxCell id="toks5-9g-l8L-j17rTKh-30" value="Ant" style="text;html=1;align=center;verticalAlign=middle;resizable=0;points=[];autosize=1;strokeColor=none;fillColor=none;" vertex="1" parent="toks5-9g-l8L-j17rTKh-29">
          <mxGeometry x="30" width="40" height="30" as="geometry" />
        </mxCell>
        <mxCell id="toks5-9g-l8L-j17rTKh-31" value="3MHz-150MHz" style="text;html=1;align=center;verticalAlign=middle;resizable=0;points=[];autosize=1;strokeColor=none;fillColor=none;" vertex="1" parent="toks5-9g-l8L-j17rTKh-29">
          <mxGeometry y="82" width="100" height="30" as="geometry" />
        </mxCell>
        <mxCell id="toks5-9g-l8L-j17rTKh-32" value="" style="group" vertex="1" connectable="0" parent="toks5-9g-l8L-j17rTKh-29">
          <mxGeometry x="40" y="22" width="20" height="60" as="geometry" />
        </mxCell>
        <mxCell id="toks5-9g-l8L-j17rTKh-33" value="" style="endArrow=none;html=1;rounded=0;" edge="1" parent="toks5-9g-l8L-j17rTKh-32">
          <mxGeometry width="50" height="50" relative="1" as="geometry">
            <mxPoint x="10" y="60" as="sourcePoint" />
            <mxPoint x="10" as="targetPoint" />
          </mxGeometry>
        </mxCell>
        <mxCell id="toks5-9g-l8L-j17rTKh-34" value="" style="endArrow=none;html=1;rounded=0;" edge="1" parent="toks5-9g-l8L-j17rTKh-32">
          <mxGeometry width="50" height="50" relative="1" as="geometry">
            <mxPoint x="10" y="30" as="sourcePoint" />
            <mxPoint x="20" y="10" as="targetPoint" />
          </mxGeometry>
        </mxCell>
        <mxCell id="toks5-9g-l8L-j17rTKh-35" value="" style="endArrow=none;html=1;rounded=0;" edge="1" parent="toks5-9g-l8L-j17rTKh-32">
          <mxGeometry width="50" height="50" relative="1" as="geometry">
            <mxPoint x="10" y="30" as="sourcePoint" />
            <mxPoint y="10" as="targetPoint" />
          </mxGeometry>
        </mxCell>
        <mxCell id="toks5-9g-l8L-j17rTKh-36" value="" style="endArrow=none;html=1;rounded=0;" edge="1" parent="toks5-9g-l8L-j17rTKh-32">
          <mxGeometry width="50" height="50" relative="1" as="geometry">
            <mxPoint y="10" as="sourcePoint" />
            <mxPoint x="20" y="10" as="targetPoint" />
          </mxGeometry>
        </mxCell>
        <mxCell id="toks5-9g-l8L-j17rTKh-37" value="" style="endArrow=none;html=1;rounded=0;entryX=0;entryY=0.5;entryDx=0;entryDy=0;startArrow=classic;startFill=1;endFill=0;" edge="1" parent="1" target="toks5-9g-l8L-j17rTKh-38">
          <mxGeometry width="50" height="50" relative="1" as="geometry">
            <mxPoint x="-959" y="461" as="sourcePoint" />
            <mxPoint x="-769" y="460" as="targetPoint" />
          </mxGeometry>
        </mxCell>
        <mxCell id="toks5-9g-l8L-j17rTKh-38" value="Tuner" style="rounded=0;whiteSpace=wrap;html=1;" vertex="1" parent="1">
          <mxGeometry x="-879" y="440.5" width="70" height="40" as="geometry" />
        </mxCell>
        <mxCell id="toks5-9g-l8L-j17rTKh-39" value="Vswr:&lt;br&gt;1:1" style="text;html=1;align=center;verticalAlign=middle;resizable=0;points=[];autosize=1;strokeColor=none;fillColor=none;" vertex="1" parent="1">
          <mxGeometry x="-869" y="480.5" width="50" height="40" as="geometry" />
        </mxCell>
        <mxCell id="toks5-9g-l8L-j17rTKh-40" value="5dBm" style="text;html=1;align=center;verticalAlign=middle;resizable=0;points=[];autosize=1;strokeColor=none;fillColor=none;" vertex="1" parent="1">
          <mxGeometry x="-754" y="478" width="50" height="30" as="geometry" />
        </mxCell>
        <mxCell id="toks5-9g-l8L-j17rTKh-41" value="" style="endArrow=classic;html=1;rounded=0;entryX=0.5;entryY=1;entryDx=0;entryDy=0;" edge="1" parent="1" source="toks5-9g-l8L-j17rTKh-42" target="toks5-9g-l8L-j17rTKh-21">
          <mxGeometry width="50" height="50" relative="1" as="geometry">
            <mxPoint x="256" y="530" as="sourcePoint" />
            <mxPoint x="251" y="490" as="targetPoint" />
          </mxGeometry>
        </mxCell>
        <mxCell id="toks5-9g-l8L-j17rTKh-42" value="&lt;b&gt;LO1&lt;/b&gt;" style="text;html=1;align=center;verticalAlign=middle;resizable=0;points=[];autosize=1;strokeColor=none;fillColor=none;" vertex="1" parent="1">
          <mxGeometry x="320" y="530" width="50" height="30" as="geometry" />
        </mxCell>
        <mxCell id="toks5-9g-l8L-j17rTKh-43" value="M1-&amp;nbsp;&lt;div&gt;Up Conversion&lt;/div&gt;" style="text;html=1;align=center;verticalAlign=middle;resizable=0;points=[];autosize=1;strokeColor=none;fillColor=none;" vertex="1" parent="1">
          <mxGeometry x="301" y="367.63" width="100" height="40" as="geometry" />
        </mxCell>
        <mxCell id="toks5-9g-l8L-j17rTKh-44" style="edgeStyle=orthogonalEdgeStyle;rounded=0;orthogonalLoop=1;jettySize=auto;html=1;entryX=0;entryY=0.5;entryDx=0;entryDy=0;startArrow=classic;startFill=1;endArrow=none;endFill=0;" edge="1" parent="1" source="toks5-9g-l8L-j17rTKh-46" target="toks5-9g-l8L-j17rTKh-49">
          <mxGeometry relative="1" as="geometry">
            <mxPoint x="605.9999999999998" y="460" as="targetPoint" />
          </mxGeometry>
        </mxCell>
        <mxCell id="toks5-9g-l8L-j17rTKh-45" value="IF2:&lt;div&gt;0.5MHZ&lt;/div&gt;" style="edgeLabel;html=1;align=center;verticalAlign=middle;resizable=0;points=[];" vertex="1" connectable="0" parent="toks5-9g-l8L-j17rTKh-44">
          <mxGeometry x="-0.1715" y="-2" relative="1" as="geometry">
            <mxPoint x="13" y="-1" as="offset" />
          </mxGeometry>
        </mxCell>
        <mxCell id="toks5-9g-l8L-j17rTKh-46" value="" style="shape=sumEllipse;perimeter=ellipsePerimeter;whiteSpace=wrap;html=1;backgroundOutline=1;" vertex="1" parent="1">
          <mxGeometry x="596" y="435.5" width="50" height="50" as="geometry" />
        </mxCell>
        <mxCell id="toks5-9g-l8L-j17rTKh-47" style="edgeStyle=orthogonalEdgeStyle;rounded=0;orthogonalLoop=1;jettySize=auto;html=1;exitX=1;exitY=0.5;exitDx=0;exitDy=0;entryX=0;entryY=0.5;entryDx=0;entryDy=0;startArrow=classic;startFill=1;endArrow=none;endFill=0;" edge="1" parent="1" source="toks5-9g-l8L-j17rTKh-23" target="toks5-9g-l8L-j17rTKh-46">
          <mxGeometry relative="1" as="geometry">
            <mxPoint x="441" y="461" as="sourcePoint" />
          </mxGeometry>
        </mxCell>
        <mxCell id="toks5-9g-l8L-j17rTKh-48" value="" style="group" vertex="1" connectable="0" parent="1">
          <mxGeometry x="721" y="420.5" width="100" height="80" as="geometry" />
        </mxCell>
        <mxCell id="toks5-9g-l8L-j17rTKh-49" value="" style="rounded=0;whiteSpace=wrap;html=1;" vertex="1" parent="toks5-9g-l8L-j17rTKh-48">
          <mxGeometry width="100" height="80" as="geometry" />
        </mxCell>
        <mxCell id="toks5-9g-l8L-j17rTKh-50" value="" style="group" vertex="1" connectable="0" parent="toks5-9g-l8L-j17rTKh-48">
          <mxGeometry x="30" y="10" width="40" height="60" as="geometry" />
        </mxCell>
        <mxCell id="toks5-9g-l8L-j17rTKh-51" value="" style="curved=1;endArrow=dash;html=1;rounded=0;endFill=0;" edge="1" parent="toks5-9g-l8L-j17rTKh-50">
          <mxGeometry width="50" height="50" relative="1" as="geometry">
            <mxPoint y="10" as="sourcePoint" />
            <mxPoint x="40" y="20" as="targetPoint" />
            <Array as="points">
              <mxPoint y="20" />
              <mxPoint x="20" y="20" />
              <mxPoint x="20" />
              <mxPoint x="40" />
              <mxPoint x="40" y="20" />
              <mxPoint x="40" y="10" />
            </Array>
          </mxGeometry>
        </mxCell>
        <mxCell id="toks5-9g-l8L-j17rTKh-52" value="" style="curved=1;endArrow=blockThin;html=1;rounded=0;endFill=1;" edge="1" parent="toks5-9g-l8L-j17rTKh-50">
          <mxGeometry width="50" height="50" relative="1" as="geometry">
            <mxPoint y="30" as="sourcePoint" />
            <mxPoint x="40" y="40" as="targetPoint" />
            <Array as="points">
              <mxPoint y="40" />
              <mxPoint x="20" y="40" />
              <mxPoint x="20" y="20" />
              <mxPoint x="40" y="20" />
              <mxPoint x="40" y="40" />
              <mxPoint x="40" y="30" />
            </Array>
          </mxGeometry>
        </mxCell>
        <mxCell id="toks5-9g-l8L-j17rTKh-53" value="" style="curved=1;endArrow=dash;html=1;rounded=0;endFill=0;" edge="1" parent="toks5-9g-l8L-j17rTKh-50">
          <mxGeometry width="50" height="50" relative="1" as="geometry">
            <mxPoint y="50" as="sourcePoint" />
            <mxPoint x="40" y="60" as="targetPoint" />
            <Array as="points">
              <mxPoint y="60" />
              <mxPoint x="20" y="60" />
              <mxPoint x="20" y="40" />
              <mxPoint x="40" y="40" />
              <mxPoint x="40" y="60" />
              <mxPoint x="40" y="50" />
            </Array>
          </mxGeometry>
        </mxCell>
        <mxCell id="toks5-9g-l8L-j17rTKh-54" value="" style="endArrow=classic;html=1;rounded=0;entryX=0.5;entryY=1;entryDx=0;entryDy=0;" edge="1" parent="1" source="toks5-9g-l8L-j17rTKh-56" target="toks5-9g-l8L-j17rTKh-46">
          <mxGeometry width="50" height="50" relative="1" as="geometry">
            <mxPoint x="521" y="530" as="sourcePoint" />
            <mxPoint x="516" y="490" as="targetPoint" />
          </mxGeometry>
        </mxCell>
        <mxCell id="toks5-9g-l8L-j17rTKh-55" value="M1-&lt;br&gt;Up- Conversion" style="text;html=1;align=center;verticalAlign=middle;resizable=0;points=[];autosize=1;strokeColor=none;fillColor=none;" vertex="1" parent="1">
          <mxGeometry x="566" y="370" width="110" height="40" as="geometry" />
        </mxCell>
        <mxCell id="toks5-9g-l8L-j17rTKh-56" value="&lt;b&gt;LO2&lt;/b&gt;" style="text;html=1;align=center;verticalAlign=middle;resizable=0;points=[];autosize=1;strokeColor=none;fillColor=none;" vertex="1" parent="1">
          <mxGeometry x="596" y="527" width="50" height="30" as="geometry" />
        </mxCell>
        <mxCell id="toks5-9g-l8L-j17rTKh-57" value="&lt;b&gt;&lt;font style=&quot;font-size: 14px;&quot;&gt;BPF&lt;/font&gt;&lt;/b&gt;" style="text;html=1;align=center;verticalAlign=middle;resizable=0;points=[];autosize=1;strokeColor=none;fillColor=none;" vertex="1" parent="1">
          <mxGeometry x="746" y="390.5" width="50" height="30" as="geometry" />
        </mxCell>
        <mxCell id="toks5-9g-l8L-j17rTKh-58" value="&lt;font style=&quot;font-size: 17px;&quot;&gt;Notes:&lt;br&gt;1.&amp;nbsp;&lt;/font&gt;&lt;span style=&quot;font-size: 17px;&quot;&gt;&lt;br&gt;&lt;/span&gt;" style="text;html=1;align=left;verticalAlign=middle;resizable=0;points=[];autosize=1;strokeColor=default;fillColor=none;" vertex="1" parent="1">
          <mxGeometry x="-1010" y="660" width="70" height="50" as="geometry" />
        </mxCell>
        <mxCell id="toks5-9g-l8L-j17rTKh-59" style="edgeStyle=orthogonalEdgeStyle;rounded=0;orthogonalLoop=1;jettySize=auto;html=1;entryX=0;entryY=0.5;entryDx=0;entryDy=0;endArrow=none;endFill=0;startArrow=classic;startFill=1;" edge="1" parent="1" source="toks5-9g-l8L-j17rTKh-49" target="toks5-9g-l8L-j17rTKh-151">
          <mxGeometry relative="1" as="geometry">
            <mxPoint x="970" y="460.4999999999999" as="targetPoint" />
          </mxGeometry>
        </mxCell>
        <mxCell id="toks5-9g-l8L-j17rTKh-66" style="edgeStyle=orthogonalEdgeStyle;rounded=0;orthogonalLoop=1;jettySize=auto;html=1;exitX=1;exitY=0.5;exitDx=0;exitDy=0;entryX=0;entryY=0.5;entryDx=0;entryDy=0;startArrow=classic;startFill=1;endArrow=none;endFill=0;" edge="1" parent="1" source="toks5-9g-l8L-j17rTKh-13" target="toks5-9g-l8L-j17rTKh-155">
          <mxGeometry relative="1" as="geometry">
            <mxPoint x="-430" y="460.5" as="targetPoint" />
          </mxGeometry>
        </mxCell>
        <mxCell id="toks5-9g-l8L-j17rTKh-70" style="edgeStyle=orthogonalEdgeStyle;rounded=0;orthogonalLoop=1;jettySize=auto;html=1;entryX=0;entryY=0.5;entryDx=0;entryDy=0;startArrow=classic;startFill=1;endArrow=none;endFill=0;exitX=1;exitY=0.5;exitDx=0;exitDy=0;" edge="1" parent="1" source="toks5-9g-l8L-j17rTKh-74" target="toks5-9g-l8L-j17rTKh-79">
          <mxGeometry relative="1" as="geometry">
            <mxPoint x="1280" y="461.12" as="sourcePoint" />
            <mxPoint x="1360.0000000000005" y="461.3700000000001" as="targetPoint" />
            <Array as="points" />
          </mxGeometry>
        </mxCell>
        <mxCell id="toks5-9g-l8L-j17rTKh-74" value="MCU" style="rounded=0;whiteSpace=wrap;html=1;align=center;" vertex="1" parent="1">
          <mxGeometry x="1190" y="415.5" width="120" height="92" as="geometry" />
        </mxCell>
        <mxCell id="toks5-9g-l8L-j17rTKh-75" style="edgeStyle=orthogonalEdgeStyle;rounded=0;orthogonalLoop=1;jettySize=auto;html=1;exitX=1;exitY=0.5;exitDx=0;exitDy=0;entryX=0;entryY=0.25;entryDx=0;entryDy=0;startArrow=classic;startFill=1;endArrow=none;endFill=0;" edge="1" parent="1" source="toks5-9g-l8L-j17rTKh-147" target="toks5-9g-l8L-j17rTKh-74">
          <mxGeometry relative="1" as="geometry">
            <mxPoint x="1080" y="439.1249999999999" as="sourcePoint" />
          </mxGeometry>
        </mxCell>
        <mxCell id="toks5-9g-l8L-j17rTKh-76" value="I" style="edgeLabel;html=1;align=center;verticalAlign=middle;resizable=0;points=[];" vertex="1" connectable="0" parent="toks5-9g-l8L-j17rTKh-75">
          <mxGeometry x="0.2712" y="1" relative="1" as="geometry">
            <mxPoint x="-17" y="-42" as="offset" />
          </mxGeometry>
        </mxCell>
        <mxCell id="toks5-9g-l8L-j17rTKh-77" style="edgeStyle=orthogonalEdgeStyle;rounded=0;orthogonalLoop=1;jettySize=auto;html=1;exitX=1;exitY=0.5;exitDx=0;exitDy=0;entryX=0;entryY=0.75;entryDx=0;entryDy=0;startArrow=classic;startFill=1;endArrow=none;endFill=0;" edge="1" parent="1" source="toks5-9g-l8L-j17rTKh-149" target="toks5-9g-l8L-j17rTKh-74">
          <mxGeometry relative="1" as="geometry">
            <mxPoint x="1080" y="485.2950000000001" as="sourcePoint" />
          </mxGeometry>
        </mxCell>
        <mxCell id="toks5-9g-l8L-j17rTKh-78" value="Q" style="edgeLabel;html=1;align=center;verticalAlign=middle;resizable=0;points=[];" vertex="1" connectable="0" parent="toks5-9g-l8L-j17rTKh-77">
          <mxGeometry x="-0.6254" relative="1" as="geometry">
            <mxPoint x="10" as="offset" />
          </mxGeometry>
        </mxCell>
        <mxCell id="toks5-9g-l8L-j17rTKh-79" value="MIC + Pre-amp" style="rounded=0;whiteSpace=wrap;html=1;" vertex="1" parent="1">
          <mxGeometry x="1390" y="416" width="70" height="92" as="geometry" />
        </mxCell>
        <mxCell id="toks5-9g-l8L-j17rTKh-80" value="&lt;font style=&quot;font-size: 18px;&quot;&gt;&lt;b&gt;Control&lt;/b&gt;&lt;/font&gt;" style="text;html=1;align=center;verticalAlign=middle;resizable=0;points=[];autosize=1;strokeColor=none;fillColor=none;" vertex="1" parent="1">
          <mxGeometry x="830" y="710" width="90" height="40" as="geometry" />
        </mxCell>
        <mxCell id="toks5-9g-l8L-j17rTKh-81" style="edgeStyle=orthogonalEdgeStyle;rounded=0;orthogonalLoop=1;jettySize=auto;html=1;entryX=0;entryY=0.5;entryDx=0;entryDy=0;endArrow=none;endFill=0;startArrow=classic;startFill=1;exitX=1;exitY=0.5;exitDx=0;exitDy=0;" edge="1" parent="1" source="toks5-9g-l8L-j17rTKh-159" target="toks5-9g-l8L-j17rTKh-21">
          <mxGeometry relative="1" as="geometry">
            <mxPoint x="219.99999999999955" y="460" as="sourcePoint" />
          </mxGeometry>
        </mxCell>
        <mxCell id="toks5-9g-l8L-j17rTKh-154" value="RF" style="edgeLabel;html=1;align=center;verticalAlign=middle;resizable=0;points=[];" vertex="1" connectable="0" parent="toks5-9g-l8L-j17rTKh-81">
          <mxGeometry x="0.1524" y="-2" relative="1" as="geometry">
            <mxPoint x="85" y="-2" as="offset" />
          </mxGeometry>
        </mxCell>
        <mxCell id="toks5-9g-l8L-j17rTKh-96" value="&lt;b&gt;&lt;font style=&quot;font-size: 13px;&quot;&gt;LT5560&lt;/font&gt;&lt;/b&gt;" style="text;html=1;align=center;verticalAlign=middle;resizable=0;points=[];autosize=1;strokeColor=none;fillColor=none;" vertex="1" parent="1">
          <mxGeometry x="310" y="400" width="70" height="30" as="geometry" />
        </mxCell>
        <mxCell id="toks5-9g-l8L-j17rTKh-104" value="&lt;b&gt;&lt;font style=&quot;font-size: 13px;&quot;&gt;LT5560&lt;/font&gt;&lt;/b&gt;" style="text;html=1;align=center;verticalAlign=middle;resizable=0;points=[];autosize=1;strokeColor=none;fillColor=none;" vertex="1" parent="1">
          <mxGeometry x="586" y="405" width="70" height="30" as="geometry" />
        </mxCell>
        <mxCell id="toks5-9g-l8L-j17rTKh-106" value="Pi-Pico 2040" style="text;html=1;align=center;verticalAlign=middle;resizable=0;points=[];autosize=1;strokeColor=none;fillColor=none;" vertex="1" parent="1">
          <mxGeometry x="1180" y="382.75" width="90" height="30" as="geometry" />
        </mxCell>
        <mxCell id="toks5-9g-l8L-j17rTKh-107" value="L-C&lt;br&gt;f_c=3MHz" style="text;html=1;align=center;verticalAlign=middle;resizable=0;points=[];autosize=1;strokeColor=none;fillColor=none;" vertex="1" parent="1">
          <mxGeometry x="456" y="500.5" width="80" height="40" as="geometry" />
        </mxCell>
        <mxCell id="toks5-9g-l8L-j17rTKh-108" style="edgeStyle=orthogonalEdgeStyle;rounded=0;orthogonalLoop=1;jettySize=auto;html=1;" edge="1" parent="1" source="toks5-9g-l8L-j17rTKh-144" target="toks5-9g-l8L-j17rTKh-56">
          <mxGeometry relative="1" as="geometry" />
        </mxCell>
        <mxCell id="toks5-9g-l8L-j17rTKh-109" style="edgeStyle=orthogonalEdgeStyle;rounded=0;orthogonalLoop=1;jettySize=auto;html=1;entryX=0.6;entryY=1;entryDx=0;entryDy=0;entryPerimeter=0;" edge="1" parent="1" source="toks5-9g-l8L-j17rTKh-144" target="toks5-9g-l8L-j17rTKh-42">
          <mxGeometry relative="1" as="geometry" />
        </mxCell>
        <mxCell id="toks5-9g-l8L-j17rTKh-121" value="&lt;b&gt;&lt;font style=&quot;font-size: 20px;&quot;&gt;Antenna&lt;/font&gt;&lt;/b&gt;" style="text;html=1;align=center;verticalAlign=middle;resizable=0;points=[];autosize=1;strokeColor=none;fillColor=none;" vertex="1" parent="1">
          <mxGeometry x="-1010" y="327.63" width="100" height="40" as="geometry" />
        </mxCell>
        <mxCell id="toks5-9g-l8L-j17rTKh-122" value="&lt;font style=&quot;font-size: 20px;&quot;&gt;&lt;b&gt;Tuner&lt;br&gt;Module&lt;/b&gt;&lt;/font&gt;" style="text;html=1;align=center;verticalAlign=middle;resizable=0;points=[];autosize=1;strokeColor=none;fillColor=none;" vertex="1" parent="1">
          <mxGeometry x="-894" y="307.63" width="90" height="60" as="geometry" />
        </mxCell>
        <mxCell id="toks5-9g-l8L-j17rTKh-123" value="&lt;b&gt;&lt;font style=&quot;font-size: 20px;&quot;&gt;FILTER MODULE&lt;/font&gt;&lt;/b&gt;" style="text;html=1;align=center;verticalAlign=middle;resizable=0;points=[];autosize=1;strokeColor=none;fillColor=none;" vertex="1" parent="1">
          <mxGeometry x="-740" y="330" width="180" height="40" as="geometry" />
        </mxCell>
        <mxCell id="toks5-9g-l8L-j17rTKh-125" value="&lt;font style=&quot;font-size: 20px;&quot;&gt;&lt;b&gt;ANALOG_PROCESSING MODULE&lt;/b&gt;&lt;/font&gt;" style="text;html=1;align=center;verticalAlign=middle;resizable=0;points=[];autosize=1;strokeColor=none;fillColor=none;" vertex="1" parent="1">
          <mxGeometry x="365" y="317.63" width="350" height="40" as="geometry" />
        </mxCell>
        <mxCell id="toks5-9g-l8L-j17rTKh-126" value="&lt;b&gt;&lt;font style=&quot;font-size: 20px;&quot;&gt;DIGITAL-PROCESSING MODULE&lt;/font&gt;&lt;/b&gt;" style="text;html=1;align=center;verticalAlign=middle;resizable=0;points=[];autosize=1;strokeColor=none;fillColor=none;" vertex="1" parent="1">
          <mxGeometry x="1020" y="260" width="330" height="40" as="geometry" />
        </mxCell>
        <mxCell id="toks5-9g-l8L-j17rTKh-142" value="&lt;font style=&quot;font-size: 13px;&quot;&gt;&lt;b&gt;Crystal Based:&lt;br&gt;&lt;br&gt;&lt;/b&gt;&lt;/font&gt;" style="text;html=1;align=center;verticalAlign=middle;resizable=0;points=[];autosize=1;strokeColor=none;fillColor=none;" vertex="1" parent="1">
          <mxGeometry x="715" y="500.5" width="110" height="40" as="geometry" />
        </mxCell>
        <mxCell id="toks5-9g-l8L-j17rTKh-143" value="" style="group" vertex="1" connectable="0" parent="1">
          <mxGeometry x="414" y="620" width="143" height="70" as="geometry" />
        </mxCell>
        <mxCell id="toks5-9g-l8L-j17rTKh-144" value="" style="rounded=0;whiteSpace=wrap;html=1;" vertex="1" parent="toks5-9g-l8L-j17rTKh-143">
          <mxGeometry y="30" width="143" height="40" as="geometry" />
        </mxCell>
        <mxCell id="toks5-9g-l8L-j17rTKh-145" value="&lt;b&gt;&lt;font style=&quot;font-size: 15px;&quot;&gt;DDS&lt;/font&gt;&lt;/b&gt;" style="text;html=1;align=center;verticalAlign=middle;resizable=0;points=[];autosize=1;strokeColor=none;fillColor=none;" vertex="1" parent="toks5-9g-l8L-j17rTKh-143">
          <mxGeometry x="38" y="35" width="60" height="30" as="geometry" />
        </mxCell>
        <mxCell id="toks5-9g-l8L-j17rTKh-146" value="&lt;b&gt;&lt;font style=&quot;font-size: 13px;&quot;&gt;AD9951&lt;/font&gt;&lt;/b&gt;" style="text;html=1;align=center;verticalAlign=middle;resizable=0;points=[];autosize=1;strokeColor=none;fillColor=none;" vertex="1" parent="toks5-9g-l8L-j17rTKh-143">
          <mxGeometry x="38" width="70" height="30" as="geometry" />
        </mxCell>
        <mxCell id="toks5-9g-l8L-j17rTKh-152" style="edgeStyle=orthogonalEdgeStyle;rounded=0;orthogonalLoop=1;jettySize=auto;html=1;exitX=0;exitY=0.5;exitDx=0;exitDy=0;entryX=0.5;entryY=0;entryDx=0;entryDy=0;" edge="1" parent="1" source="toks5-9g-l8L-j17rTKh-147" target="toks5-9g-l8L-j17rTKh-151">
          <mxGeometry relative="1" as="geometry" />
        </mxCell>
        <mxCell id="toks5-9g-l8L-j17rTKh-147" value="" style="shape=sumEllipse;perimeter=ellipsePerimeter;whiteSpace=wrap;html=1;backgroundOutline=1;" vertex="1" parent="1">
          <mxGeometry x="1010" y="370" width="50" height="50" as="geometry" />
        </mxCell>
        <mxCell id="toks5-9g-l8L-j17rTKh-148" value="&lt;b&gt;&lt;font style=&quot;font-size: 13px;&quot;&gt;LT5560&lt;/font&gt;&lt;/b&gt;" style="text;html=1;align=center;verticalAlign=middle;resizable=0;points=[];autosize=1;strokeColor=none;fillColor=none;" vertex="1" parent="1">
          <mxGeometry x="1000" y="340.5" width="70" height="30" as="geometry" />
        </mxCell>
        <mxCell id="toks5-9g-l8L-j17rTKh-153" style="edgeStyle=orthogonalEdgeStyle;rounded=0;orthogonalLoop=1;jettySize=auto;html=1;exitX=0;exitY=0.5;exitDx=0;exitDy=0;entryX=0.5;entryY=1;entryDx=0;entryDy=0;" edge="1" parent="1" source="toks5-9g-l8L-j17rTKh-149" target="toks5-9g-l8L-j17rTKh-151">
          <mxGeometry relative="1" as="geometry" />
        </mxCell>
        <mxCell id="toks5-9g-l8L-j17rTKh-149" value="" style="shape=sumEllipse;perimeter=ellipsePerimeter;whiteSpace=wrap;html=1;backgroundOutline=1;" vertex="1" parent="1">
          <mxGeometry x="1010" y="490.5" width="50" height="50" as="geometry" />
        </mxCell>
        <mxCell id="toks5-9g-l8L-j17rTKh-150" value="&lt;b&gt;&lt;font style=&quot;font-size: 13px;&quot;&gt;LT5560&lt;/font&gt;&lt;/b&gt;" style="text;html=1;align=center;verticalAlign=middle;resizable=0;points=[];autosize=1;strokeColor=none;fillColor=none;" vertex="1" parent="1">
          <mxGeometry x="1000" y="539.75" width="70" height="30" as="geometry" />
        </mxCell>
        <mxCell id="toks5-9g-l8L-j17rTKh-151" value="" style="shape=orEllipse;perimeter=ellipsePerimeter;whiteSpace=wrap;html=1;backgroundOutline=1;" vertex="1" parent="1">
          <mxGeometry x="910" y="435" width="50" height="50" as="geometry" />
        </mxCell>
        <mxCell id="toks5-9g-l8L-j17rTKh-155" value="POWER AMPLIFIER" style="rounded=0;whiteSpace=wrap;html=1;" vertex="1" parent="1">
          <mxGeometry x="-360" y="440" width="140" height="40" as="geometry" />
        </mxCell>
        <mxCell id="toks5-9g-l8L-j17rTKh-158" value="" style="group" vertex="1" connectable="0" parent="1">
          <mxGeometry x="-50" y="420" width="100" height="80" as="geometry" />
        </mxCell>
        <mxCell id="toks5-9g-l8L-j17rTKh-159" value="" style="rounded=0;whiteSpace=wrap;html=1;" vertex="1" parent="toks5-9g-l8L-j17rTKh-158">
          <mxGeometry width="100" height="80" as="geometry" />
        </mxCell>
        <mxCell id="toks5-9g-l8L-j17rTKh-160" value="" style="group" vertex="1" connectable="0" parent="toks5-9g-l8L-j17rTKh-158">
          <mxGeometry x="30" y="10" width="40" height="60" as="geometry" />
        </mxCell>
        <mxCell id="toks5-9g-l8L-j17rTKh-161" value="" style="curved=1;endArrow=dash;html=1;rounded=0;endFill=0;" edge="1" parent="toks5-9g-l8L-j17rTKh-160">
          <mxGeometry width="50" height="50" relative="1" as="geometry">
            <mxPoint y="10" as="sourcePoint" />
            <mxPoint x="40" y="20" as="targetPoint" />
            <Array as="points">
              <mxPoint y="20" />
              <mxPoint x="20" y="20" />
              <mxPoint x="20" />
              <mxPoint x="40" />
              <mxPoint x="40" y="20" />
              <mxPoint x="40" y="10" />
            </Array>
          </mxGeometry>
        </mxCell>
        <mxCell id="toks5-9g-l8L-j17rTKh-162" value="" style="curved=1;endArrow=blockThin;html=1;rounded=0;endFill=1;" edge="1" parent="toks5-9g-l8L-j17rTKh-160">
          <mxGeometry width="50" height="50" relative="1" as="geometry">
            <mxPoint y="30" as="sourcePoint" />
            <mxPoint x="40" y="40" as="targetPoint" />
            <Array as="points">
              <mxPoint y="40" />
              <mxPoint x="20" y="40" />
              <mxPoint x="20" y="20" />
              <mxPoint x="40" y="20" />
              <mxPoint x="40" y="40" />
              <mxPoint x="40" y="30" />
            </Array>
          </mxGeometry>
        </mxCell>
        <mxCell id="toks5-9g-l8L-j17rTKh-163" value="" style="curved=1;endArrow=dash;html=1;rounded=0;endFill=0;" edge="1" parent="toks5-9g-l8L-j17rTKh-160">
          <mxGeometry width="50" height="50" relative="1" as="geometry">
            <mxPoint y="50" as="sourcePoint" />
            <mxPoint x="40" y="60" as="targetPoint" />
            <Array as="points">
              <mxPoint y="60" />
              <mxPoint x="20" y="60" />
              <mxPoint x="20" y="40" />
              <mxPoint x="40" y="40" />
              <mxPoint x="40" y="60" />
              <mxPoint x="40" y="50" />
            </Array>
          </mxGeometry>
        </mxCell>
        <mxCell id="toks5-9g-l8L-j17rTKh-164" value="&lt;b&gt;&lt;font style=&quot;font-size: 14px;&quot;&gt;BPF&lt;/font&gt;&lt;/b&gt;" style="text;html=1;align=center;verticalAlign=middle;resizable=0;points=[];autosize=1;strokeColor=none;fillColor=none;" vertex="1" parent="1">
          <mxGeometry x="-25" y="500" width="50" height="30" as="geometry" />
        </mxCell>
        <mxCell id="toks5-9g-l8L-j17rTKh-165" style="edgeStyle=orthogonalEdgeStyle;rounded=0;orthogonalLoop=1;jettySize=auto;html=1;entryX=1;entryY=0.5;entryDx=0;entryDy=0;" edge="1" parent="1" source="toks5-9g-l8L-j17rTKh-159" target="toks5-9g-l8L-j17rTKh-155">
          <mxGeometry relative="1" as="geometry" />
        </mxCell>
        <mxCell id="toks5-9g-l8L-j17rTKh-166" value="&lt;b&gt;&lt;font style=&quot;font-size: 20px;&quot;&gt;AMPLIFIER MODULE&lt;/font&gt;&lt;/b&gt;" style="text;html=1;align=center;verticalAlign=middle;resizable=0;points=[];autosize=1;strokeColor=none;fillColor=none;" vertex="1" parent="1">
          <mxGeometry x="-222" y="307.63" width="220" height="40" as="geometry" />
        </mxCell>
        <mxCell id="toks5-9g-l8L-j17rTKh-171" value="ADC" style="rounded=0;whiteSpace=wrap;html=1;" vertex="1" parent="1">
          <mxGeometry x="1280" y="440" width="30" height="37.25" as="geometry" />
        </mxCell>
        <mxCell id="toks5-9g-l8L-j17rTKh-173" style="edgeStyle=orthogonalEdgeStyle;rounded=0;orthogonalLoop=1;jettySize=auto;html=1;entryX=0.5;entryY=1;entryDx=0;entryDy=0;" edge="1" parent="1" source="toks5-9g-l8L-j17rTKh-172" target="toks5-9g-l8L-j17rTKh-147">
          <mxGeometry relative="1" as="geometry" />
        </mxCell>
        <mxCell id="toks5-9g-l8L-j17rTKh-174" style="edgeStyle=orthogonalEdgeStyle;rounded=0;orthogonalLoop=1;jettySize=auto;html=1;entryX=0.5;entryY=0;entryDx=0;entryDy=0;" edge="1" parent="1" source="toks5-9g-l8L-j17rTKh-172" target="toks5-9g-l8L-j17rTKh-149">
          <mxGeometry relative="1" as="geometry" />
        </mxCell>
        <mxCell id="toks5-9g-l8L-j17rTKh-172" value="Phase correctors" style="rounded=0;whiteSpace=wrap;html=1;" vertex="1" parent="1">
          <mxGeometry x="995" y="437.75" width="80" height="34.5" as="geometry" />
        </mxCell>
      </root>
    </mxGraphModel>
  </diagram>
</mxfile>
